solid STL generated by MeshLab
  facet normal  1.000000e+00 -0.000000e+00  0.000000e+00
    outer loop
      vertex   6.250000e-02  2.165063e-02  1.250000e-02
      vertex   6.250000e-02  2.500000e-02 -1.530758e-18
      vertex   6.250000e-02  6.250000e-02  5.000000e-01
    endloop
  endfacet
  facet normal  1.000000e+00  0.000000e+00  0.000000e+00
    outer loop
      vertex   6.250000e-02 -2.165063e-02 -1.250000e-02
      vertex   6.250000e-02 -2.500000e-02  1.530758e-18
      vertex   6.250000e-02 -6.250000e-02 -5.000000e-01
    endloop
  endfacet
  facet normal  1.000000e+00  0.000000e+00  0.000000e+00
    outer loop
      vertex   6.250000e-02 -6.250000e-02 -5.000000e-01
      vertex   6.250000e-02 -2.500000e-02  1.530758e-18
      vertex   6.250000e-02 -6.250000e-02  5.000000e-01
    endloop
  endfacet
  facet normal  1.000000e+00  0.000000e+00  0.000000e+00
    outer loop
      vertex   6.250000e-02  6.250000e-02  5.000000e-01
      vertex   6.250000e-02  2.500000e-02 -1.530758e-18
      vertex   6.250000e-02  6.250000e-02 -5.000000e-01
    endloop
  endfacet
  facet normal  1.000000e+00  0.000000e+00  0.000000e+00
    outer loop
      vertex   6.250000e-02  2.500000e-02 -1.530758e-18
      vertex   6.250000e-02  2.165063e-02 -1.250000e-02
      vertex   6.250000e-02  6.250000e-02 -5.000000e-01
    endloop
  endfacet
  facet normal  1.000000e+00  0.000000e+00  0.000000e+00
    outer loop
      vertex   6.250000e-02  6.250000e-02 -5.000000e-01
      vertex   6.250000e-02  2.165063e-02 -1.250000e-02
      vertex   6.250000e-02  1.250000e-02 -2.165063e-02
    endloop
  endfacet
  facet normal  1.000000e+00  0.000000e+00  0.000000e+00
    outer loop
      vertex   6.250000e-02  6.250000e-02 -5.000000e-01
      vertex   6.250000e-02  1.250000e-02 -2.165063e-02
      vertex   6.250000e-02 -3.153481e-16 -5.038911e-01
    endloop
  endfacet
  facet normal  1.000000e+00  0.000000e+00  0.000000e+00
    outer loop
      vertex   6.250000e-02 -3.153481e-16 -5.038911e-01
      vertex   6.250000e-02  1.250000e-02 -2.165063e-02
      vertex   6.250000e-02 -1.530758e-18 -2.500000e-02
    endloop
  endfacet
  facet normal  1.000000e+00  0.000000e+00 -0.000000e+00
    outer loop
      vertex   6.250000e-02 -3.153481e-16 -5.038911e-01
      vertex   6.250000e-02 -1.530758e-18 -2.500000e-02
      vertex   6.250000e-02 -6.250000e-02 -5.000000e-01
    endloop
  endfacet
  facet normal  1.000000e+00  0.000000e+00  0.000000e+00
    outer loop
      vertex   6.250000e-02 -6.250000e-02 -5.000000e-01
      vertex   6.250000e-02 -1.530758e-18 -2.500000e-02
      vertex   6.250000e-02 -1.250000e-02 -2.165063e-02
    endloop
  endfacet
  facet normal  1.000000e+00  0.000000e+00  0.000000e+00
    outer loop
      vertex   6.250000e-02 -6.250000e-02 -5.000000e-01
      vertex   6.250000e-02 -1.250000e-02 -2.165063e-02
      vertex   6.250000e-02 -2.165063e-02 -1.250000e-02
    endloop
  endfacet
  facet normal  1.000000e+00  0.000000e+00 -0.000000e+00
    outer loop
      vertex   6.250000e-02 -2.500000e-02  1.530758e-18
      vertex   6.250000e-02 -2.165063e-02  1.250000e-02
      vertex   6.250000e-02 -6.250000e-02  5.000000e-01
    endloop
  endfacet
  facet normal  1.000000e+00  0.000000e+00  0.000000e+00
    outer loop
      vertex   6.250000e-02 -6.250000e-02  5.000000e-01
      vertex   6.250000e-02 -2.165063e-02  1.250000e-02
      vertex   6.250000e-02 -1.250000e-02  2.165063e-02
    endloop
  endfacet
  facet normal  1.000000e+00 -0.000000e+00  0.000000e+00
    outer loop
      vertex   6.250000e-02 -6.250000e-02  5.000000e-01
      vertex   6.250000e-02 -1.250000e-02  2.165063e-02
      vertex   6.250000e-02  1.557535e-16  5.038911e-01
    endloop
  endfacet
  facet normal  1.000000e+00  0.000000e+00  0.000000e+00
    outer loop
      vertex   6.250000e-02  1.557535e-16  5.038911e-01
      vertex   6.250000e-02 -1.250000e-02  2.165063e-02
      vertex   6.250000e-02 -1.234703e-17  2.500000e-02
    endloop
  endfacet
  facet normal  1.000000e+00  0.000000e+00  0.000000e+00
    outer loop
      vertex   6.250000e-02  1.557535e-16  5.038911e-01
      vertex   6.250000e-02 -1.234703e-17  2.500000e-02
      vertex   6.250000e-02  6.250000e-02  5.000000e-01
    endloop
  endfacet
  facet normal  1.000000e+00  0.000000e+00  0.000000e+00
    outer loop
      vertex   6.250000e-02  6.250000e-02  5.000000e-01
      vertex   6.250000e-02 -1.234703e-17  2.500000e-02
      vertex   6.250000e-02  1.250000e-02  2.165063e-02
    endloop
  endfacet
  facet normal  1.000000e+00  0.000000e+00  0.000000e+00
    outer loop
      vertex   6.250000e-02  6.250000e-02  5.000000e-01
      vertex   6.250000e-02  1.250000e-02  2.165063e-02
      vertex   6.250000e-02  2.165063e-02  1.250000e-02
    endloop
  endfacet
  facet normal -1.000000e+00  0.000000e+00  0.000000e+00
    outer loop
      vertex  -6.250000e-02  2.165063e-02  6.250000e-02
      vertex  -6.250000e-02  1.250000e-02  7.165063e-02
      vertex  -6.250000e-02  6.250000e-02  5.000000e-01
    endloop
  endfacet
  facet normal -1.000000e+00  0.000000e+00 -0.000000e+00
    outer loop
      vertex  -6.250000e-02  1.250000e-02 -7.165063e-02
      vertex  -6.250000e-02  6.250000e-02 -5.000000e-01
      vertex  -6.250000e-02 -1.847006e-17 -7.500000e-02
    endloop
  endfacet
  facet normal -1.000000e+00  0.000000e+00 -0.000000e+00
    outer loop
      vertex  -6.250000e-02 -1.847006e-17 -7.500000e-02
      vertex  -6.250000e-02  6.250000e-02 -5.000000e-01
      vertex  -6.250000e-02 -3.153481e-16 -5.038911e-01
    endloop
  endfacet
  facet normal -1.000000e+00 -0.000000e+00  0.000000e+00
    outer loop
      vertex  -6.250000e-02 -1.847006e-17 -7.500000e-02
      vertex  -6.250000e-02 -3.153481e-16 -5.038911e-01
      vertex  -6.250000e-02 -1.250000e-02 -7.165063e-02
    endloop
  endfacet
  facet normal -1.000000e+00  0.000000e+00 -0.000000e+00
    outer loop
      vertex  -6.250000e-02 -1.250000e-02 -7.165063e-02
      vertex  -6.250000e-02 -3.153481e-16 -5.038911e-01
      vertex  -6.250000e-02 -6.250000e-02 -5.000000e-01
    endloop
  endfacet
  facet normal -1.000000e+00 -0.000000e+00  0.000000e+00
    outer loop
      vertex  -6.250000e-02  6.250000e-02  5.000000e-01
      vertex  -6.250000e-02  1.250000e-02  7.165063e-02
      vertex  -6.250000e-02  1.557535e-16  5.038911e-01
    endloop
  endfacet
  facet normal -1.000000e+00  0.000000e+00 -0.000000e+00
    outer loop
      vertex  -6.250000e-02  1.557535e-16  5.038911e-01
      vertex  -6.250000e-02  1.250000e-02  7.165063e-02
      vertex  -6.250000e-02  1.847006e-17  7.500000e-02
    endloop
  endfacet
  facet normal -1.000000e+00  0.000000e+00  0.000000e+00
    outer loop
      vertex  -6.250000e-02  1.557535e-16  5.038911e-01
      vertex  -6.250000e-02  1.847006e-17  7.500000e-02
      vertex  -6.250000e-02 -6.250000e-02  5.000000e-01
    endloop
  endfacet
  facet normal -1.000000e+00  0.000000e+00  0.000000e+00
    outer loop
      vertex  -6.250000e-02 -6.250000e-02  5.000000e-01
      vertex  -6.250000e-02  1.847006e-17  7.500000e-02
      vertex  -6.250000e-02 -1.250000e-02  7.165063e-02
    endloop
  endfacet
  facet normal -1.000000e+00  0.000000e+00  0.000000e+00
    outer loop
      vertex  -6.250000e-02 -6.250000e-02  5.000000e-01
      vertex  -6.250000e-02 -1.250000e-02  7.165063e-02
      vertex  -6.250000e-02 -2.165063e-02  6.250000e-02
    endloop
  endfacet
  facet normal -1.000000e+00  0.000000e+00  0.000000e+00
    outer loop
      vertex  -6.250000e-02  1.250000e-02 -7.165063e-02
      vertex  -6.250000e-02  2.165063e-02 -6.250000e-02
      vertex  -6.250000e-02  6.250000e-02 -5.000000e-01
    endloop
  endfacet
  facet normal -1.000000e+00  0.000000e+00  0.000000e+00
    outer loop
      vertex  -6.250000e-02  6.250000e-02 -5.000000e-01
      vertex  -6.250000e-02  2.165063e-02 -6.250000e-02
      vertex  -6.250000e-02  2.500000e-02 -5.000000e-02
    endloop
  endfacet
  facet normal -1.000000e+00  0.000000e+00  0.000000e+00
    outer loop
      vertex  -6.250000e-02  6.250000e-02 -5.000000e-01
      vertex  -6.250000e-02  2.500000e-02 -5.000000e-02
      vertex  -6.250000e-02  6.250000e-02  5.000000e-01
    endloop
  endfacet
  facet normal -1.000000e+00  0.000000e+00  0.000000e+00
    outer loop
      vertex  -6.250000e-02  6.250000e-02  5.000000e-01
      vertex  -6.250000e-02  2.500000e-02 -5.000000e-02
      vertex  -6.250000e-02  2.500000e-02  5.000000e-02
    endloop
  endfacet
  facet normal -1.000000e+00  0.000000e+00  0.000000e+00
    outer loop
      vertex  -6.250000e-02  6.250000e-02  5.000000e-01
      vertex  -6.250000e-02  2.500000e-02  5.000000e-02
      vertex  -6.250000e-02  2.165063e-02  6.250000e-02
    endloop
  endfacet
  facet normal -1.000000e+00 -0.000000e+00  0.000000e+00
    outer loop
      vertex  -6.250000e-02 -2.165063e-02  6.250000e-02
      vertex  -6.250000e-02 -2.500000e-02  5.000000e-02
      vertex  -6.250000e-02 -6.250000e-02  5.000000e-01
    endloop
  endfacet
  facet normal -1.000000e+00  0.000000e+00  0.000000e+00
    outer loop
      vertex  -6.250000e-02 -6.250000e-02  5.000000e-01
      vertex  -6.250000e-02 -2.500000e-02  5.000000e-02
      vertex  -6.250000e-02 -2.500000e-02 -5.000000e-02
    endloop
  endfacet
  facet normal -1.000000e+00  0.000000e+00  0.000000e+00
    outer loop
      vertex  -6.250000e-02 -6.250000e-02  5.000000e-01
      vertex  -6.250000e-02 -2.500000e-02 -5.000000e-02
      vertex  -6.250000e-02 -6.250000e-02 -5.000000e-01
    endloop
  endfacet
  facet normal -1.000000e+00  0.000000e+00  0.000000e+00
    outer loop
      vertex  -6.250000e-02 -6.250000e-02 -5.000000e-01
      vertex  -6.250000e-02 -2.500000e-02 -5.000000e-02
      vertex  -6.250000e-02 -2.165063e-02 -6.250000e-02
    endloop
  endfacet
  facet normal -1.000000e+00  0.000000e+00  0.000000e+00
    outer loop
      vertex  -6.250000e-02 -6.250000e-02 -5.000000e-01
      vertex  -6.250000e-02 -2.165063e-02 -6.250000e-02
      vertex  -6.250000e-02 -1.250000e-02 -7.165063e-02
    endloop
  endfacet
  facet normal  0.000000e+00 -1.000000e+00  0.000000e+00
    outer loop
      vertex  -6.250000e-02 -6.250000e-02  5.000000e-01
      vertex  -6.250000e-02 -6.250000e-02 -5.000000e-01
      vertex   6.250000e-02 -6.250000e-02  5.000000e-01
    endloop
  endfacet
  facet normal  0.000000e+00 -1.000000e+00 -0.000000e+00
    outer loop
      vertex   6.250000e-02 -6.250000e-02  5.000000e-01
      vertex  -6.250000e-02 -6.250000e-02 -5.000000e-01
      vertex   6.250000e-02 -6.250000e-02 -5.000000e-01
    endloop
  endfacet
  facet normal  0.000000e+00  1.000000e+00  0.000000e+00
    outer loop
      vertex  -6.250000e-02  6.250000e-02 -5.000000e-01
      vertex  -6.250000e-02  6.250000e-02  5.000000e-01
      vertex   6.250000e-02  6.250000e-02 -5.000000e-01
    endloop
  endfacet
  facet normal  0.000000e+00  1.000000e+00 -0.000000e+00
    outer loop
      vertex   6.250000e-02  6.250000e-02 -5.000000e-01
      vertex  -6.250000e-02  6.250000e-02  5.000000e-01
      vertex   6.250000e-02  6.250000e-02  5.000000e-01
    endloop
  endfacet
  facet normal  0.000000e+00 -6.213746e-02  9.980677e-01
    outer loop
      vertex  -6.250000e-02 -6.250000e-02  5.000000e-01
      vertex   6.250000e-02 -6.250000e-02  5.000000e-01
      vertex   6.250000e-02  1.542711e-16  5.038911e-01
    endloop
  endfacet
  facet normal  0.000000e+00 -6.213746e-02  9.980677e-01
    outer loop
      vertex  -6.250000e-02 -6.250000e-02  5.000000e-01
      vertex   6.250000e-02  1.542711e-16  5.038911e-01
      vertex  -6.250000e-02  1.542711e-16  5.038911e-01
    endloop
  endfacet
  facet normal -0.000000e+00  6.213746e-02  9.980677e-01
    outer loop
      vertex  -6.250000e-02  1.542711e-16  5.038911e-01
      vertex   6.250000e-02  1.542711e-16  5.038911e-01
      vertex   6.250000e-02  6.250000e-02  5.000000e-01
    endloop
  endfacet
  facet normal  0.000000e+00  6.213746e-02  9.980677e-01
    outer loop
      vertex  -6.250000e-02  1.542711e-16  5.038911e-01
      vertex   6.250000e-02  6.250000e-02  5.000000e-01
      vertex  -6.250000e-02  6.250000e-02  5.000000e-01
    endloop
  endfacet
  facet normal  0.000000e+00  6.213746e-02 -9.980677e-01
    outer loop
      vertex  -6.250000e-02  6.250000e-02 -5.000000e-01
      vertex   6.250000e-02  6.250000e-02 -5.000000e-01
      vertex   6.250000e-02 -3.163349e-16 -5.038911e-01
    endloop
  endfacet
  facet normal  0.000000e+00  6.213746e-02 -9.980677e-01
    outer loop
      vertex  -6.250000e-02  6.250000e-02 -5.000000e-01
      vertex   6.250000e-02 -3.163349e-16 -5.038911e-01
      vertex  -6.250000e-02 -3.163349e-16 -5.038911e-01
    endloop
  endfacet
  facet normal  0.000000e+00 -6.213746e-02 -9.980677e-01
    outer loop
      vertex  -6.250000e-02 -3.163349e-16 -5.038911e-01
      vertex   6.250000e-02 -3.163349e-16 -5.038911e-01
      vertex   6.250000e-02 -6.250000e-02 -5.000000e-01
    endloop
  endfacet
  facet normal  0.000000e+00 -6.213746e-02 -9.980677e-01
    outer loop
      vertex  -6.250000e-02 -3.163349e-16 -5.038911e-01
      vertex   6.250000e-02 -6.250000e-02 -5.000000e-01
      vertex  -6.250000e-02 -6.250000e-02 -5.000000e-01
    endloop
  endfacet
  facet normal  0.000000e+00  9.659258e-01 -2.588191e-01
    outer loop
      vertex  -4.250000e-02 -2.500000e-02  5.000000e-02
      vertex  -6.250000e-02 -2.500000e-02  5.000000e-02
      vertex  -4.250000e-02 -2.165063e-02  6.250000e-02
    endloop
  endfacet
  facet normal  0.000000e+00  9.659258e-01 -2.588191e-01
    outer loop
      vertex  -4.250000e-02 -2.165063e-02  6.250000e-02
      vertex  -6.250000e-02 -2.500000e-02  5.000000e-02
      vertex  -6.250000e-02 -2.165063e-02  6.250000e-02
    endloop
  endfacet
  facet normal  0.000000e+00  7.071067e-01 -7.071069e-01
    outer loop
      vertex  -4.250000e-02 -2.165063e-02  6.250000e-02
      vertex  -6.250000e-02 -2.165063e-02  6.250000e-02
      vertex  -4.250000e-02 -1.250000e-02  7.165063e-02
    endloop
  endfacet
  facet normal  0.000000e+00  7.071067e-01 -7.071069e-01
    outer loop
      vertex  -4.250000e-02 -1.250000e-02  7.165063e-02
      vertex  -6.250000e-02 -2.165063e-02  6.250000e-02
      vertex  -6.250000e-02 -1.250000e-02  7.165063e-02
    endloop
  endfacet
  facet normal  0.000000e+00  2.588195e-01 -9.659258e-01
    outer loop
      vertex  -4.250000e-02 -1.250000e-02  7.165063e-02
      vertex  -6.250000e-02 -1.250000e-02  7.165063e-02
      vertex  -4.250000e-02  2.296198e-17  7.500000e-02
    endloop
  endfacet
  facet normal  0.000000e+00  2.588195e-01 -9.659258e-01
    outer loop
      vertex  -4.250000e-02  2.296198e-17  7.500000e-02
      vertex  -6.250000e-02 -1.250000e-02  7.165063e-02
      vertex  -6.250000e-02  2.296198e-17  7.500000e-02
    endloop
  endfacet
  facet normal -0.000000e+00 -2.588195e-01 -9.659258e-01
    outer loop
      vertex  -4.250000e-02  2.296198e-17  7.500000e-02
      vertex  -6.250000e-02  2.296198e-17  7.500000e-02
      vertex  -4.250000e-02  1.250000e-02  7.165063e-02
    endloop
  endfacet
  facet normal -0.000000e+00 -2.588195e-01 -9.659258e-01
    outer loop
      vertex  -4.250000e-02  1.250000e-02  7.165063e-02
      vertex  -6.250000e-02  2.296198e-17  7.500000e-02
      vertex  -6.250000e-02  1.250000e-02  7.165063e-02
    endloop
  endfacet
  facet normal -0.000000e+00 -7.071067e-01 -7.071069e-01
    outer loop
      vertex  -4.250000e-02  1.250000e-02  7.165063e-02
      vertex  -6.250000e-02  1.250000e-02  7.165063e-02
      vertex  -4.250000e-02  2.165063e-02  6.250000e-02
    endloop
  endfacet
  facet normal -0.000000e+00 -7.071067e-01 -7.071069e-01
    outer loop
      vertex  -4.250000e-02  2.165063e-02  6.250000e-02
      vertex  -6.250000e-02  1.250000e-02  7.165063e-02
      vertex  -6.250000e-02  2.165063e-02  6.250000e-02
    endloop
  endfacet
  facet normal -0.000000e+00 -9.659258e-01 -2.588191e-01
    outer loop
      vertex  -4.250000e-02  2.165063e-02  6.250000e-02
      vertex  -6.250000e-02  2.165063e-02  6.250000e-02
      vertex  -4.250000e-02  2.500000e-02  5.000000e-02
    endloop
  endfacet
  facet normal -0.000000e+00 -9.659258e-01 -2.588191e-01
    outer loop
      vertex  -4.250000e-02  2.500000e-02  5.000000e-02
      vertex  -6.250000e-02  2.165063e-02  6.250000e-02
      vertex  -6.250000e-02  2.500000e-02  5.000000e-02
    endloop
  endfacet
  facet normal  0.000000e+00  1.000000e+00  0.000000e+00
    outer loop
      vertex  -4.250000e-02 -2.500000e-02  5.000000e-02
      vertex  -4.250000e-02 -2.500000e-02 -5.000000e-02
      vertex  -6.250000e-02 -2.500000e-02  5.000000e-02
    endloop
  endfacet
  facet normal  0.000000e+00  1.000000e+00  0.000000e+00
    outer loop
      vertex  -6.250000e-02 -2.500000e-02  5.000000e-02
      vertex  -4.250000e-02 -2.500000e-02 -5.000000e-02
      vertex  -6.250000e-02 -2.500000e-02 -5.000000e-02
    endloop
  endfacet
  facet normal  0.000000e+00 -9.659258e-01  2.588191e-01
    outer loop
      vertex  -4.250000e-02  2.500000e-02 -5.000000e-02
      vertex  -6.250000e-02  2.500000e-02 -5.000000e-02
      vertex  -4.250000e-02  2.165063e-02 -6.250000e-02
    endloop
  endfacet
  facet normal  0.000000e+00 -9.659258e-01  2.588191e-01
    outer loop
      vertex  -4.250000e-02  2.165063e-02 -6.250000e-02
      vertex  -6.250000e-02  2.500000e-02 -5.000000e-02
      vertex  -6.250000e-02  2.165063e-02 -6.250000e-02
    endloop
  endfacet
  facet normal  0.000000e+00 -7.071067e-01  7.071069e-01
    outer loop
      vertex  -4.250000e-02  2.165063e-02 -6.250000e-02
      vertex  -6.250000e-02  2.165063e-02 -6.250000e-02
      vertex  -4.250000e-02  1.250000e-02 -7.165063e-02
    endloop
  endfacet
  facet normal  0.000000e+00 -7.071067e-01  7.071069e-01
    outer loop
      vertex  -4.250000e-02  1.250000e-02 -7.165063e-02
      vertex  -6.250000e-02  2.165063e-02 -6.250000e-02
      vertex  -6.250000e-02  1.250000e-02 -7.165063e-02
    endloop
  endfacet
  facet normal  0.000000e+00 -2.588195e-01  9.659258e-01
    outer loop
      vertex  -4.250000e-02  1.250000e-02 -7.165063e-02
      vertex  -6.250000e-02  1.250000e-02 -7.165063e-02
      vertex  -4.250000e-02 -1.990036e-17 -7.500000e-02
    endloop
  endfacet
  facet normal  0.000000e+00 -2.588195e-01  9.659258e-01
    outer loop
      vertex  -4.250000e-02 -1.990036e-17 -7.500000e-02
      vertex  -6.250000e-02  1.250000e-02 -7.165063e-02
      vertex  -6.250000e-02 -1.990036e-17 -7.500000e-02
    endloop
  endfacet
  facet normal  0.000000e+00  2.588195e-01  9.659258e-01
    outer loop
      vertex  -4.250000e-02 -1.990036e-17 -7.500000e-02
      vertex  -6.250000e-02 -1.990036e-17 -7.500000e-02
      vertex  -4.250000e-02 -1.250000e-02 -7.165063e-02
    endloop
  endfacet
  facet normal  0.000000e+00  2.588195e-01  9.659258e-01
    outer loop
      vertex  -4.250000e-02 -1.250000e-02 -7.165063e-02
      vertex  -6.250000e-02 -1.990036e-17 -7.500000e-02
      vertex  -6.250000e-02 -1.250000e-02 -7.165063e-02
    endloop
  endfacet
  facet normal  0.000000e+00  7.071067e-01  7.071069e-01
    outer loop
      vertex  -4.250000e-02 -1.250000e-02 -7.165063e-02
      vertex  -6.250000e-02 -1.250000e-02 -7.165063e-02
      vertex  -4.250000e-02 -2.165063e-02 -6.250000e-02
    endloop
  endfacet
  facet normal  0.000000e+00  7.071067e-01  7.071069e-01
    outer loop
      vertex  -4.250000e-02 -2.165063e-02 -6.250000e-02
      vertex  -6.250000e-02 -1.250000e-02 -7.165063e-02
      vertex  -6.250000e-02 -2.165063e-02 -6.250000e-02
    endloop
  endfacet
  facet normal  0.000000e+00  9.659258e-01  2.588191e-01
    outer loop
      vertex  -4.250000e-02 -2.165063e-02 -6.250000e-02
      vertex  -6.250000e-02 -2.165063e-02 -6.250000e-02
      vertex  -4.250000e-02 -2.500000e-02 -5.000000e-02
    endloop
  endfacet
  facet normal  0.000000e+00  9.659258e-01  2.588191e-01
    outer loop
      vertex  -4.250000e-02 -2.500000e-02 -5.000000e-02
      vertex  -6.250000e-02 -2.165063e-02 -6.250000e-02
      vertex  -6.250000e-02 -2.500000e-02 -5.000000e-02
    endloop
  endfacet
  facet normal  0.000000e+00 -1.000000e+00  0.000000e+00
    outer loop
      vertex  -4.250000e-02  2.500000e-02 -5.000000e-02
      vertex  -4.250000e-02  2.500000e-02  5.000000e-02
      vertex  -6.250000e-02  2.500000e-02 -5.000000e-02
    endloop
  endfacet
  facet normal  0.000000e+00 -1.000000e+00  0.000000e+00
    outer loop
      vertex  -6.250000e-02  2.500000e-02 -5.000000e-02
      vertex  -4.250000e-02  2.500000e-02  5.000000e-02
      vertex  -6.250000e-02  2.500000e-02  5.000000e-02
    endloop
  endfacet
  facet normal -1.000000e+00  0.000000e+00  0.000000e+00
    outer loop
      vertex  -4.250000e-02 -1.250000e-02 -7.165063e-02
      vertex  -4.250000e-02 -2.165063e-02 -6.250000e-02
      vertex  -4.250000e-02 -1.990036e-17 -7.500000e-02
    endloop
  endfacet
  facet normal -1.000000e+00  0.000000e+00  0.000000e+00
    outer loop
      vertex  -4.250000e-02 -1.990036e-17 -7.500000e-02
      vertex  -4.250000e-02 -2.165063e-02 -6.250000e-02
      vertex  -4.250000e-02 -2.500000e-02 -5.000000e-02
    endloop
  endfacet
  facet normal -1.000000e+00  0.000000e+00  0.000000e+00
    outer loop
      vertex  -4.250000e-02 -2.500000e-02 -5.000000e-02
      vertex  -4.250000e-02 -2.500000e-02  5.000000e-02
      vertex  -4.250000e-02  2.500000e-02  5.000000e-02
    endloop
  endfacet
  facet normal -1.000000e+00  0.000000e+00  0.000000e+00
    outer loop
      vertex  -4.250000e-02  2.500000e-02  5.000000e-02
      vertex  -4.250000e-02 -2.500000e-02  5.000000e-02
      vertex  -4.250000e-02 -2.165063e-02  6.250000e-02
    endloop
  endfacet
  facet normal -1.000000e+00 -0.000000e+00  0.000000e+00
    outer loop
      vertex  -4.250000e-02  1.250000e-02 -7.165063e-02
      vertex  -4.250000e-02 -1.990036e-17 -7.500000e-02
      vertex  -4.250000e-02  2.165063e-02 -6.250000e-02
    endloop
  endfacet
  facet normal -1.000000e+00 -0.000000e+00  0.000000e+00
    outer loop
      vertex  -4.250000e-02  2.165063e-02 -6.250000e-02
      vertex  -4.250000e-02 -1.990036e-17 -7.500000e-02
      vertex  -4.250000e-02 -2.500000e-02 -5.000000e-02
    endloop
  endfacet
  facet normal -1.000000e+00  0.000000e+00  0.000000e+00
    outer loop
      vertex  -4.250000e-02  2.165063e-02 -6.250000e-02
      vertex  -4.250000e-02 -2.500000e-02 -5.000000e-02
      vertex  -4.250000e-02  2.500000e-02 -5.000000e-02
    endloop
  endfacet
  facet normal -1.000000e+00  0.000000e+00  0.000000e+00
    outer loop
      vertex  -4.250000e-02  2.500000e-02 -5.000000e-02
      vertex  -4.250000e-02 -2.500000e-02 -5.000000e-02
      vertex  -4.250000e-02  2.500000e-02  5.000000e-02
    endloop
  endfacet
  facet normal -1.000000e+00 -0.000000e+00 -0.000000e+00
    outer loop
      vertex  -4.250000e-02  1.250000e-02  7.165063e-02
      vertex  -4.250000e-02  2.165063e-02  6.250000e-02
      vertex  -4.250000e-02  2.296198e-17  7.500000e-02
    endloop
  endfacet
  facet normal -1.000000e+00  0.000000e+00  0.000000e+00
    outer loop
      vertex  -4.250000e-02  2.296198e-17  7.500000e-02
      vertex  -4.250000e-02  2.165063e-02  6.250000e-02
      vertex  -4.250000e-02  2.500000e-02  5.000000e-02
    endloop
  endfacet
  facet normal -1.000000e+00  0.000000e+00 -0.000000e+00
    outer loop
      vertex  -4.250000e-02  2.296198e-17  7.500000e-02
      vertex  -4.250000e-02  2.500000e-02  5.000000e-02
      vertex  -4.250000e-02 -1.250000e-02  7.165063e-02
    endloop
  endfacet
  facet normal -1.000000e+00  0.000000e+00 -0.000000e+00
    outer loop
      vertex  -4.250000e-02 -1.250000e-02  7.165063e-02
      vertex  -4.250000e-02  2.500000e-02  5.000000e-02
      vertex  -4.250000e-02 -2.165063e-02  6.250000e-02
    endloop
  endfacet
  facet normal  0.000000e+00 -2.588191e-01 -9.659258e-01
    outer loop
      vertex   6.250000e-02 -1.530758e-18 -2.500000e-02
      vertex   8.250000e-02 -1.250000e-02 -2.165063e-02
      vertex   6.250000e-02 -1.250000e-02 -2.165063e-02
    endloop
  endfacet
  facet normal  0.000000e+00 -7.071068e-01 -7.071068e-01
    outer loop
      vertex   6.250000e-02 -1.250000e-02 -2.165063e-02
      vertex   8.250000e-02 -1.250000e-02 -2.165063e-02
      vertex   8.250000e-02 -2.165063e-02 -1.250000e-02
    endloop
  endfacet
  facet normal  0.000000e+00 -7.071068e-01 -7.071068e-01
    outer loop
      vertex   6.250000e-02 -1.250000e-02 -2.165063e-02
      vertex   8.250000e-02 -2.165063e-02 -1.250000e-02
      vertex   6.250000e-02 -2.165063e-02 -1.250000e-02
    endloop
  endfacet
  facet normal  0.000000e+00 -9.659258e-01 -2.588191e-01
    outer loop
      vertex   6.250000e-02 -2.165063e-02 -1.250000e-02
      vertex   8.250000e-02 -2.165063e-02 -1.250000e-02
      vertex   8.250000e-02 -2.500000e-02  3.608174e-18
    endloop
  endfacet
  facet normal  0.000000e+00 -9.659258e-01 -2.588191e-01
    outer loop
      vertex   6.250000e-02 -2.165063e-02 -1.250000e-02
      vertex   8.250000e-02 -2.500000e-02  3.608174e-18
      vertex   6.250000e-02 -2.500000e-02  1.387274e-19
    endloop
  endfacet
  facet normal -4.489794e-17 -9.659258e-01  2.588191e-01
    outer loop
      vertex   6.250000e-02 -2.500000e-02  1.387274e-19
      vertex   8.250000e-02 -2.500000e-02  3.608174e-18
      vertex   8.250000e-02 -2.165063e-02  1.250000e-02
    endloop
  endfacet
  facet normal  0.000000e+00 -9.659258e-01  2.588191e-01
    outer loop
      vertex   6.250000e-02 -2.500000e-02  1.387274e-19
      vertex   8.250000e-02 -2.165063e-02  1.250000e-02
      vertex   6.250000e-02 -2.165063e-02  1.250000e-02
    endloop
  endfacet
  facet normal  0.000000e+00 -7.071068e-01  7.071068e-01
    outer loop
      vertex   6.250000e-02 -2.165063e-02  1.250000e-02
      vertex   8.250000e-02 -2.165063e-02  1.250000e-02
      vertex   8.250000e-02 -1.250000e-02  2.165063e-02
    endloop
  endfacet
  facet normal  0.000000e+00 -7.071068e-01  7.071068e-01
    outer loop
      vertex   6.250000e-02 -2.165063e-02  1.250000e-02
      vertex   8.250000e-02 -1.250000e-02  2.165063e-02
      vertex   6.250000e-02 -1.250000e-02  2.165063e-02
    endloop
  endfacet
  facet normal  0.000000e+00 -2.588191e-01  9.659258e-01
    outer loop
      vertex   6.250000e-02 -1.250000e-02  2.165063e-02
      vertex   8.250000e-02 -1.250000e-02  2.165063e-02
      vertex   8.250000e-02 -1.263309e-17  2.500000e-02
    endloop
  endfacet
  facet normal  0.000000e+00 -2.588191e-01  9.659258e-01
    outer loop
      vertex   6.250000e-02 -1.250000e-02  2.165063e-02
      vertex   8.250000e-02 -1.263309e-17  2.500000e-02
      vertex   6.250000e-02 -1.263309e-17  2.500000e-02
    endloop
  endfacet
  facet normal -0.000000e+00  2.588191e-01  9.659258e-01
    outer loop
      vertex   6.250000e-02 -1.263309e-17  2.500000e-02
      vertex   8.250000e-02 -1.263309e-17  2.500000e-02
      vertex   8.250000e-02  1.250000e-02  2.165063e-02
    endloop
  endfacet
  facet normal  0.000000e+00  2.588191e-01  9.659258e-01
    outer loop
      vertex   6.250000e-02 -1.263309e-17  2.500000e-02
      vertex   8.250000e-02  1.250000e-02  2.165063e-02
      vertex   6.250000e-02  1.250000e-02  2.165063e-02
    endloop
  endfacet
  facet normal -0.000000e+00  7.071068e-01  7.071068e-01
    outer loop
      vertex   6.250000e-02  1.250000e-02  2.165063e-02
      vertex   8.250000e-02  1.250000e-02  2.165063e-02
      vertex   8.250000e-02  2.165063e-02  1.250000e-02
    endloop
  endfacet
  facet normal  0.000000e+00  7.071068e-01  7.071068e-01
    outer loop
      vertex   6.250000e-02  1.250000e-02  2.165063e-02
      vertex   8.250000e-02  2.165063e-02  1.250000e-02
      vertex   6.250000e-02  2.165063e-02  1.250000e-02
    endloop
  endfacet
  facet normal -0.000000e+00  9.659258e-01  2.588191e-01
    outer loop
      vertex   6.250000e-02  2.165063e-02  1.250000e-02
      vertex   8.250000e-02  2.165063e-02  1.250000e-02
      vertex   8.250000e-02  2.500000e-02  3.442547e-17
    endloop
  endfacet
  facet normal  0.000000e+00  9.659258e-01  2.588191e-01
    outer loop
      vertex   6.250000e-02  2.165063e-02  1.250000e-02
      vertex   8.250000e-02  2.500000e-02  3.442547e-17
      vertex   6.250000e-02  2.500000e-02  3.095602e-17
    endloop
  endfacet
  facet normal  4.489794e-17  9.659258e-01 -2.588191e-01
    outer loop
      vertex   6.250000e-02  2.500000e-02  3.095602e-17
      vertex   8.250000e-02  2.500000e-02  3.442547e-17
      vertex   8.250000e-02  2.165063e-02 -1.250000e-02
    endloop
  endfacet
  facet normal  0.000000e+00  9.659258e-01 -2.588191e-01
    outer loop
      vertex   6.250000e-02  2.500000e-02  3.095602e-17
      vertex   8.250000e-02  2.165063e-02 -1.250000e-02
      vertex   6.250000e-02  2.165063e-02 -1.250000e-02
    endloop
  endfacet
  facet normal  0.000000e+00  7.071068e-01 -7.071068e-01
    outer loop
      vertex   6.250000e-02  2.165063e-02 -1.250000e-02
      vertex   8.250000e-02  2.165063e-02 -1.250000e-02
      vertex   8.250000e-02  1.250000e-02 -2.165063e-02
    endloop
  endfacet
  facet normal  0.000000e+00  7.071068e-01 -7.071068e-01
    outer loop
      vertex   6.250000e-02  2.165063e-02 -1.250000e-02
      vertex   8.250000e-02  1.250000e-02 -2.165063e-02
      vertex   6.250000e-02  1.250000e-02 -2.165063e-02
    endloop
  endfacet
  facet normal  0.000000e+00  2.588191e-01 -9.659258e-01
    outer loop
      vertex   6.250000e-02  1.250000e-02 -2.165063e-02
      vertex   8.250000e-02  1.250000e-02 -2.165063e-02
      vertex   8.250000e-02 -1.530758e-18 -2.500000e-02
    endloop
  endfacet
  facet normal  0.000000e+00  2.588191e-01 -9.659258e-01
    outer loop
      vertex   6.250000e-02  1.250000e-02 -2.165063e-02
      vertex   8.250000e-02 -1.530758e-18 -2.500000e-02
      vertex   6.250000e-02 -1.530758e-18 -2.500000e-02
    endloop
  endfacet
  facet normal  0.000000e+00 -2.588191e-01 -9.659258e-01
    outer loop
      vertex   6.250000e-02 -1.530758e-18 -2.500000e-02
      vertex   8.250000e-02 -1.530758e-18 -2.500000e-02
      vertex   8.250000e-02 -1.250000e-02 -2.165063e-02
    endloop
  endfacet
  facet normal  1.000000e+00  0.000000e+00  0.000000e+00
    outer loop
      vertex   8.250000e-02  2.165063e-02  1.250000e-02
      vertex   8.250000e-02  1.250000e-02  2.165063e-02
      vertex   8.250000e-02  5.608293e-34  9.159340e-18
    endloop
  endfacet
  facet normal  1.000000e+00  0.000000e+00 -0.000000e+00
    outer loop
      vertex   8.250000e-02  5.608293e-34  9.159340e-18
      vertex   8.250000e-02  1.250000e-02  2.165063e-02
      vertex   8.250000e-02 -1.530859e-18  2.500000e-02
    endloop
  endfacet
  facet normal  1.000000e+00  0.000000e+00  0.000000e+00
    outer loop
      vertex   8.250000e-02  5.608293e-34  9.159340e-18
      vertex   8.250000e-02 -1.530859e-18  2.500000e-02
      vertex   8.250000e-02 -1.250000e-02  2.165063e-02
    endloop
  endfacet
  facet normal  1.000000e+00  0.000000e+00 -0.000000e+00
    outer loop
      vertex   8.250000e-02  1.250000e-02 -2.165063e-02
      vertex   8.250000e-02  2.165063e-02 -1.250000e-02
      vertex   8.250000e-02  5.608293e-34  9.159340e-18
    endloop
  endfacet
  facet normal  1.000000e+00 -0.000000e+00  0.000000e+00
    outer loop
      vertex   8.250000e-02  5.608293e-34  9.159340e-18
      vertex   8.250000e-02  2.165063e-02 -1.250000e-02
      vertex   8.250000e-02  2.500000e-02  3.442547e-17
    endloop
  endfacet
  facet normal  1.000000e+00  0.000000e+00  0.000000e+00
    outer loop
      vertex   8.250000e-02  5.608293e-34  9.159340e-18
      vertex   8.250000e-02  2.500000e-02  3.442547e-17
      vertex   8.250000e-02  2.165063e-02  1.250000e-02
    endloop
  endfacet
  facet normal  1.000000e+00 -0.000000e+00  0.000000e+00
    outer loop
      vertex   8.250000e-02 -2.165063e-02 -1.250000e-02
      vertex   8.250000e-02 -1.250000e-02 -2.165063e-02
      vertex   8.250000e-02  5.608293e-34  9.159340e-18
    endloop
  endfacet
  facet normal  1.000000e+00  0.000000e+00  0.000000e+00
    outer loop
      vertex   8.250000e-02  5.608293e-34  9.159340e-18
      vertex   8.250000e-02 -1.250000e-02 -2.165063e-02
      vertex   8.250000e-02 -1.530758e-18 -2.500000e-02
    endloop
  endfacet
  facet normal  1.000000e+00  0.000000e+00  0.000000e+00
    outer loop
      vertex   8.250000e-02  5.608293e-34  9.159340e-18
      vertex   8.250000e-02 -1.530758e-18 -2.500000e-02
      vertex   8.250000e-02  1.250000e-02 -2.165063e-02
    endloop
  endfacet
  facet normal  1.000000e+00  0.000000e+00  0.000000e+00
    outer loop
      vertex   8.250000e-02 -1.250000e-02  2.165063e-02
      vertex   8.250000e-02 -2.165063e-02  1.250000e-02
      vertex   8.250000e-02  5.608293e-34  9.159340e-18
    endloop
  endfacet
  facet normal  1.000000e+00  0.000000e+00  0.000000e+00
    outer loop
      vertex   8.250000e-02  5.608293e-34  9.159340e-18
      vertex   8.250000e-02 -2.165063e-02  1.250000e-02
      vertex   8.250000e-02 -2.500000e-02  3.608174e-18
    endloop
  endfacet
  facet normal  1.000000e+00  0.000000e+00  0.000000e+00
    outer loop
      vertex   8.250000e-02  5.608293e-34  9.159340e-18
      vertex   8.250000e-02 -2.500000e-02  3.608174e-18
      vertex   8.250000e-02 -2.165063e-02 -1.250000e-02
    endloop
  endfacet
endsolid vcg
