solid STL generated by MeshLab
  facet normal  1.000000e+00  0.000000e+00  0.000000e+00
    outer loop
      vertex   1.250000e-01  1.250000e-02 -2.165063e-02
      vertex   1.250000e-01  2.775558e-17 -2.500000e-02
      vertex   1.250000e-01  5.000000e-01 -6.250000e-02
    endloop
  endfacet
  facet normal  1.000000e+00  0.000000e+00 -0.000000e+00
    outer loop
      vertex   1.250000e-01 -1.250000e-02  2.165063e-02
      vertex   1.250000e-01  2.775558e-17  2.500000e-02
      vertex   1.250000e-01 -5.000000e-01  6.250000e-02
    endloop
  endfacet
  facet normal  1.000000e+00 -0.000000e+00  0.000000e+00
    outer loop
      vertex   1.250000e-01 -5.000000e-01  6.250000e-02
      vertex   1.250000e-01  2.775558e-17  2.500000e-02
      vertex   1.250000e-01  5.000000e-01  6.250000e-02
    endloop
  endfacet
  facet normal  1.000000e+00  0.000000e+00  0.000000e+00
    outer loop
      vertex   1.250000e-01  5.000000e-01 -6.250000e-02
      vertex   1.250000e-01  2.775558e-17 -2.500000e-02
      vertex   1.250000e-01 -5.000000e-01 -6.250000e-02
    endloop
  endfacet
  facet normal  1.000000e+00  0.000000e+00  0.000000e+00
    outer loop
      vertex   1.250000e-01  2.775558e-17 -2.500000e-02
      vertex   1.250000e-01 -1.250000e-02 -2.165063e-02
      vertex   1.250000e-01 -5.000000e-01 -6.250000e-02
    endloop
  endfacet
  facet normal  1.000000e+00  0.000000e+00  0.000000e+00
    outer loop
      vertex   1.250000e-01 -5.000000e-01 -6.250000e-02
      vertex   1.250000e-01 -1.250000e-02 -2.165063e-02
      vertex   1.250000e-01 -2.165063e-02 -1.250000e-02
    endloop
  endfacet
  facet normal  1.000000e+00  0.000000e+00 -0.000000e+00
    outer loop
      vertex   1.250000e-01 -5.000000e-01 -6.250000e-02
      vertex   1.250000e-01 -2.165063e-02 -1.250000e-02
      vertex   1.250000e-01 -5.038911e-01  3.295975e-16
    endloop
  endfacet
  facet normal  1.000000e+00  0.000000e+00  0.000000e+00
    outer loop
      vertex   1.250000e-01 -5.038911e-01  3.295975e-16
      vertex   1.250000e-01 -2.165063e-02 -1.250000e-02
      vertex   1.250000e-01 -2.500000e-02  4.510281e-17
    endloop
  endfacet
  facet normal  1.000000e+00 -0.000000e+00  0.000000e+00
    outer loop
      vertex   1.250000e-01 -5.038911e-01  3.295975e-16
      vertex   1.250000e-01 -2.500000e-02  4.510281e-17
      vertex   1.250000e-01 -5.000000e-01  6.250000e-02
    endloop
  endfacet
  facet normal  1.000000e+00  0.000000e+00  0.000000e+00
    outer loop
      vertex   1.250000e-01 -5.000000e-01  6.250000e-02
      vertex   1.250000e-01 -2.500000e-02  4.510281e-17
      vertex   1.250000e-01 -2.165063e-02  1.250000e-02
    endloop
  endfacet
  facet normal  1.000000e+00  0.000000e+00  0.000000e+00
    outer loop
      vertex   1.250000e-01 -5.000000e-01  6.250000e-02
      vertex   1.250000e-01 -2.165063e-02  1.250000e-02
      vertex   1.250000e-01 -1.250000e-02  2.165063e-02
    endloop
  endfacet
  facet normal  1.000000e+00 -0.000000e+00  0.000000e+00
    outer loop
      vertex   1.250000e-01  2.775558e-17  2.500000e-02
      vertex   1.250000e-01  1.250000e-02  2.165063e-02
      vertex   1.250000e-01  5.000000e-01  6.250000e-02
    endloop
  endfacet
  facet normal  1.000000e+00  0.000000e+00  0.000000e+00
    outer loop
      vertex   1.250000e-01  5.000000e-01  6.250000e-02
      vertex   1.250000e-01  1.250000e-02  2.165063e-02
      vertex   1.250000e-01  2.165063e-02  1.250000e-02
    endloop
  endfacet
  facet normal  1.000000e+00  0.000000e+00  0.000000e+00
    outer loop
      vertex   1.250000e-01  5.000000e-01  6.250000e-02
      vertex   1.250000e-01  2.165063e-02  1.250000e-02
      vertex   1.250000e-01  5.038911e-01 -7.979728e-17
    endloop
  endfacet
  facet normal  1.000000e+00  0.000000e+00  0.000000e+00
    outer loop
      vertex   1.250000e-01  5.038911e-01 -7.979728e-17
      vertex   1.250000e-01  2.165063e-02  1.250000e-02
      vertex   1.250000e-01  2.500000e-02  5.898060e-17
    endloop
  endfacet
  facet normal  1.000000e+00  0.000000e+00  0.000000e+00
    outer loop
      vertex   1.250000e-01  5.038911e-01 -7.979728e-17
      vertex   1.250000e-01  2.500000e-02  5.898060e-17
      vertex   1.250000e-01  5.000000e-01 -6.250000e-02
    endloop
  endfacet
  facet normal  1.000000e+00  0.000000e+00  0.000000e+00
    outer loop
      vertex   1.250000e-01  5.000000e-01 -6.250000e-02
      vertex   1.250000e-01  2.500000e-02  5.898060e-17
      vertex   1.250000e-01  2.165063e-02 -1.250000e-02
    endloop
  endfacet
  facet normal  1.000000e+00  0.000000e+00  0.000000e+00
    outer loop
      vertex   1.250000e-01  5.000000e-01 -6.250000e-02
      vertex   1.250000e-01  2.165063e-02 -1.250000e-02
      vertex   1.250000e-01  1.250000e-02 -2.165063e-02
    endloop
  endfacet
  facet normal -1.000000e+00  0.000000e+00  0.000000e+00
    outer loop
      vertex   5.551115e-17  6.250000e-02 -2.165063e-02
      vertex   5.551115e-17  7.165063e-02 -1.250000e-02
      vertex   5.551115e-17  5.000000e-01 -6.250000e-02
    endloop
  endfacet
  facet normal -1.000000e+00 -0.000000e+00  0.000000e+00
    outer loop
      vertex   5.551115e-17 -7.165063e-02 -1.250000e-02
      vertex   5.551115e-17 -5.000000e-01 -6.250000e-02
      vertex   5.551115e-17 -7.500000e-02  5.898060e-17
    endloop
  endfacet
  facet normal -1.000000e+00 -0.000000e+00  0.000000e+00
    outer loop
      vertex   5.551115e-17 -7.500000e-02  5.898060e-17
      vertex   5.551115e-17 -5.000000e-01 -6.250000e-02
      vertex   5.551115e-17 -5.038911e-01  3.295975e-16
    endloop
  endfacet
  facet normal -1.000000e+00  0.000000e+00  0.000000e+00
    outer loop
      vertex   5.551115e-17 -7.500000e-02  5.898060e-17
      vertex   5.551115e-17 -5.038911e-01  3.295975e-16
      vertex   5.551115e-17 -7.165063e-02  1.250000e-02
    endloop
  endfacet
  facet normal -1.000000e+00 -0.000000e+00  0.000000e+00
    outer loop
      vertex   5.551115e-17 -7.165063e-02  1.250000e-02
      vertex   5.551115e-17 -5.038911e-01  3.295975e-16
      vertex   5.551115e-17 -5.000000e-01  6.250000e-02
    endloop
  endfacet
  facet normal -1.000000e+00  0.000000e+00  0.000000e+00
    outer loop
      vertex   5.551115e-17  5.000000e-01 -6.250000e-02
      vertex   5.551115e-17  7.165063e-02 -1.250000e-02
      vertex   5.551115e-17  5.038911e-01 -7.979728e-17
    endloop
  endfacet
  facet normal -1.000000e+00 -0.000000e+00  0.000000e+00
    outer loop
      vertex   5.551115e-17  5.038911e-01 -7.979728e-17
      vertex   5.551115e-17  7.165063e-02 -1.250000e-02
      vertex   5.551115e-17  7.500000e-02  3.122502e-17
    endloop
  endfacet
  facet normal -1.000000e+00  0.000000e+00  0.000000e+00
    outer loop
      vertex   5.551115e-17  5.038911e-01 -7.979728e-17
      vertex   5.551115e-17  7.500000e-02  3.122502e-17
      vertex   5.551115e-17  5.000000e-01  6.250000e-02
    endloop
  endfacet
  facet normal -1.000000e+00  0.000000e+00  0.000000e+00
    outer loop
      vertex   5.551115e-17  5.000000e-01  6.250000e-02
      vertex   5.551115e-17  7.500000e-02  3.122502e-17
      vertex   5.551115e-17  7.165063e-02  1.250000e-02
    endloop
  endfacet
  facet normal -1.000000e+00  0.000000e+00  0.000000e+00
    outer loop
      vertex   5.551115e-17  5.000000e-01  6.250000e-02
      vertex   5.551115e-17  7.165063e-02  1.250000e-02
      vertex   5.551115e-17  6.250000e-02  2.165063e-02
    endloop
  endfacet
  facet normal -1.000000e+00  0.000000e+00 -0.000000e+00
    outer loop
      vertex   5.551115e-17 -7.165063e-02 -1.250000e-02
      vertex   5.551115e-17 -6.250000e-02 -2.165063e-02
      vertex   5.551115e-17 -5.000000e-01 -6.250000e-02
    endloop
  endfacet
  facet normal -1.000000e+00  0.000000e+00  0.000000e+00
    outer loop
      vertex   5.551115e-17 -5.000000e-01 -6.250000e-02
      vertex   5.551115e-17 -6.250000e-02 -2.165063e-02
      vertex   5.551115e-17 -5.000000e-02 -2.500000e-02
    endloop
  endfacet
  facet normal -1.000000e+00  0.000000e+00  0.000000e+00
    outer loop
      vertex   5.551115e-17 -5.000000e-01 -6.250000e-02
      vertex   5.551115e-17 -5.000000e-02 -2.500000e-02
      vertex   5.551115e-17  5.000000e-01 -6.250000e-02
    endloop
  endfacet
  facet normal -1.000000e+00  0.000000e+00  0.000000e+00
    outer loop
      vertex   5.551115e-17  5.000000e-01 -6.250000e-02
      vertex   5.551115e-17 -5.000000e-02 -2.500000e-02
      vertex   5.551115e-17  5.000000e-02 -2.500000e-02
    endloop
  endfacet
  facet normal -1.000000e+00  0.000000e+00  0.000000e+00
    outer loop
      vertex   5.551115e-17  5.000000e-01 -6.250000e-02
      vertex   5.551115e-17  5.000000e-02 -2.500000e-02
      vertex   5.551115e-17  6.250000e-02 -2.165063e-02
    endloop
  endfacet
  facet normal -1.000000e+00  0.000000e+00  0.000000e+00
    outer loop
      vertex   5.551115e-17  6.250000e-02  2.165063e-02
      vertex   5.551115e-17  5.000000e-02  2.500000e-02
      vertex   5.551115e-17  5.000000e-01  6.250000e-02
    endloop
  endfacet
  facet normal -1.000000e+00  0.000000e+00  0.000000e+00
    outer loop
      vertex   5.551115e-17  5.000000e-01  6.250000e-02
      vertex   5.551115e-17  5.000000e-02  2.500000e-02
      vertex   5.551115e-17 -5.000000e-02  2.500000e-02
    endloop
  endfacet
  facet normal -1.000000e+00 -0.000000e+00  0.000000e+00
    outer loop
      vertex   5.551115e-17  5.000000e-01  6.250000e-02
      vertex   5.551115e-17 -5.000000e-02  2.500000e-02
      vertex   5.551115e-17 -5.000000e-01  6.250000e-02
    endloop
  endfacet
  facet normal -1.000000e+00  0.000000e+00  0.000000e+00
    outer loop
      vertex   5.551115e-17 -5.000000e-01  6.250000e-02
      vertex   5.551115e-17 -5.000000e-02  2.500000e-02
      vertex   5.551115e-17 -6.250000e-02  2.165063e-02
    endloop
  endfacet
  facet normal -1.000000e+00  0.000000e+00  0.000000e+00
    outer loop
      vertex   5.551115e-17 -5.000000e-01  6.250000e-02
      vertex   5.551115e-17 -6.250000e-02  2.165063e-02
      vertex   5.551115e-17 -7.165063e-02  1.250000e-02
    endloop
  endfacet
  facet normal -0.000000e+00  0.000000e+00  1.000000e+00
    outer loop
      vertex   5.551115e-17  5.000000e-01  6.250000e-02
      vertex   5.551115e-17 -5.000000e-01  6.250000e-02
      vertex   1.250000e-01  5.000000e-01  6.250000e-02
    endloop
  endfacet
  facet normal  0.000000e+00  0.000000e+00  1.000000e+00
    outer loop
      vertex   1.250000e-01  5.000000e-01  6.250000e-02
      vertex   5.551115e-17 -5.000000e-01  6.250000e-02
      vertex   1.250000e-01 -5.000000e-01  6.250000e-02
    endloop
  endfacet
  facet normal  0.000000e+00  0.000000e+00 -1.000000e+00
    outer loop
      vertex   5.551115e-17 -5.000000e-01 -6.250000e-02
      vertex   5.551115e-17  5.000000e-01 -6.250000e-02
      vertex   1.250000e-01 -5.000000e-01 -6.250000e-02
    endloop
  endfacet
  facet normal  0.000000e+00  0.000000e+00 -1.000000e+00
    outer loop
      vertex   1.250000e-01 -5.000000e-01 -6.250000e-02
      vertex   5.551115e-17  5.000000e-01 -6.250000e-02
      vertex   1.250000e-01  5.000000e-01 -6.250000e-02
    endloop
  endfacet
  facet normal -0.000000e+00  9.980677e-01  6.213746e-02
    outer loop
      vertex   5.551115e-17  5.000000e-01  6.250000e-02
      vertex   1.250000e-01  5.000000e-01  6.250000e-02
      vertex   1.250000e-01  5.038911e-01 -7.831492e-17
    endloop
  endfacet
  facet normal  0.000000e+00  9.980677e-01  6.213746e-02
    outer loop
      vertex   5.551115e-17  5.000000e-01  6.250000e-02
      vertex   1.250000e-01  5.038911e-01 -7.831492e-17
      vertex   5.551115e-17  5.038911e-01 -7.831492e-17
    endloop
  endfacet
  facet normal  0.000000e+00  9.980677e-01 -6.213746e-02
    outer loop
      vertex   5.551115e-17  5.038911e-01 -7.831492e-17
      vertex   1.250000e-01  5.038911e-01 -7.831492e-17
      vertex   1.250000e-01  5.000000e-01 -6.250000e-02
    endloop
  endfacet
  facet normal  0.000000e+00  9.980677e-01 -6.213746e-02
    outer loop
      vertex   5.551115e-17  5.038911e-01 -7.831492e-17
      vertex   1.250000e-01  5.000000e-01 -6.250000e-02
      vertex   5.551115e-17  5.000000e-01 -6.250000e-02
    endloop
  endfacet
  facet normal  0.000000e+00 -9.980677e-01 -6.213746e-02
    outer loop
      vertex   5.551115e-17 -5.000000e-01 -6.250000e-02
      vertex   1.250000e-01 -5.000000e-01 -6.250000e-02
      vertex   1.250000e-01 -5.038911e-01  3.305843e-16
    endloop
  endfacet
  facet normal  0.000000e+00 -9.980677e-01 -6.213746e-02
    outer loop
      vertex   5.551115e-17 -5.000000e-01 -6.250000e-02
      vertex   1.250000e-01 -5.038911e-01  3.305843e-16
      vertex   5.551115e-17 -5.038911e-01  3.305843e-16
    endloop
  endfacet
  facet normal  0.000000e+00 -9.980677e-01  6.213746e-02
    outer loop
      vertex   5.551115e-17 -5.038911e-01  3.305843e-16
      vertex   1.250000e-01 -5.038911e-01  3.305843e-16
      vertex   1.250000e-01 -5.000000e-01  6.250000e-02
    endloop
  endfacet
  facet normal  0.000000e+00 -9.980677e-01  6.213746e-02
    outer loop
      vertex   5.551115e-17 -5.038911e-01  3.305843e-16
      vertex   1.250000e-01 -5.000000e-01  6.250000e-02
      vertex   5.551115e-17 -5.000000e-01  6.250000e-02
    endloop
  endfacet
  facet normal -0.000000e+00 -2.588191e-01 -9.659258e-01
    outer loop
      vertex   2.000000e-02  5.000000e-02  2.500000e-02
      vertex   5.551115e-17  5.000000e-02  2.500000e-02
      vertex   2.000000e-02  6.250000e-02  2.165063e-02
    endloop
  endfacet
  facet normal -0.000000e+00 -2.588191e-01 -9.659258e-01
    outer loop
      vertex   2.000000e-02  6.250000e-02  2.165063e-02
      vertex   5.551115e-17  5.000000e-02  2.500000e-02
      vertex   5.551115e-17  6.250000e-02  2.165063e-02
    endloop
  endfacet
  facet normal -0.000000e+00 -7.071069e-01 -7.071067e-01
    outer loop
      vertex   2.000000e-02  6.250000e-02  2.165063e-02
      vertex   5.551115e-17  6.250000e-02  2.165063e-02
      vertex   2.000000e-02  7.165063e-02  1.250000e-02
    endloop
  endfacet
  facet normal -0.000000e+00 -7.071069e-01 -7.071067e-01
    outer loop
      vertex   2.000000e-02  7.165063e-02  1.250000e-02
      vertex   5.551115e-17  6.250000e-02  2.165063e-02
      vertex   5.551115e-17  7.165063e-02  1.250000e-02
    endloop
  endfacet
  facet normal -0.000000e+00 -9.659258e-01 -2.588195e-01
    outer loop
      vertex   2.000000e-02  7.165063e-02  1.250000e-02
      vertex   5.551115e-17  7.165063e-02  1.250000e-02
      vertex   2.000000e-02  7.500000e-02  2.673311e-17
    endloop
  endfacet
  facet normal -0.000000e+00 -9.659258e-01 -2.588195e-01
    outer loop
      vertex   2.000000e-02  7.500000e-02  2.673311e-17
      vertex   5.551115e-17  7.165063e-02  1.250000e-02
      vertex   5.551115e-17  7.500000e-02  2.673311e-17
    endloop
  endfacet
  facet normal  0.000000e+00 -9.659258e-01  2.588195e-01
    outer loop
      vertex   2.000000e-02  7.500000e-02  2.673311e-17
      vertex   5.551115e-17  7.500000e-02  2.673311e-17
      vertex   2.000000e-02  7.165063e-02 -1.250000e-02
    endloop
  endfacet
  facet normal  0.000000e+00 -9.659258e-01  2.588195e-01
    outer loop
      vertex   2.000000e-02  7.165063e-02 -1.250000e-02
      vertex   5.551115e-17  7.500000e-02  2.673311e-17
      vertex   5.551115e-17  7.165063e-02 -1.250000e-02
    endloop
  endfacet
  facet normal  0.000000e+00 -7.071069e-01  7.071067e-01
    outer loop
      vertex   2.000000e-02  7.165063e-02 -1.250000e-02
      vertex   5.551115e-17  7.165063e-02 -1.250000e-02
      vertex   2.000000e-02  6.250000e-02 -2.165063e-02
    endloop
  endfacet
  facet normal  0.000000e+00 -7.071069e-01  7.071067e-01
    outer loop
      vertex   2.000000e-02  6.250000e-02 -2.165063e-02
      vertex   5.551115e-17  7.165063e-02 -1.250000e-02
      vertex   5.551115e-17  6.250000e-02 -2.165063e-02
    endloop
  endfacet
  facet normal  0.000000e+00 -2.588191e-01  9.659258e-01
    outer loop
      vertex   2.000000e-02  6.250000e-02 -2.165063e-02
      vertex   5.551115e-17  6.250000e-02 -2.165063e-02
      vertex   2.000000e-02  5.000000e-02 -2.500000e-02
    endloop
  endfacet
  facet normal  0.000000e+00 -2.588191e-01  9.659258e-01
    outer loop
      vertex   2.000000e-02  5.000000e-02 -2.500000e-02
      vertex   5.551115e-17  6.250000e-02 -2.165063e-02
      vertex   5.551115e-17  5.000000e-02 -2.500000e-02
    endloop
  endfacet
  facet normal -0.000000e+00 -0.000000e+00 -1.000000e+00
    outer loop
      vertex   2.000000e-02  5.000000e-02  2.500000e-02
      vertex   2.000000e-02 -5.000000e-02  2.500000e-02
      vertex   5.551115e-17  5.000000e-02  2.500000e-02
    endloop
  endfacet
  facet normal  0.000000e+00  0.000000e+00 -1.000000e+00
    outer loop
      vertex   5.551115e-17  5.000000e-02  2.500000e-02
      vertex   2.000000e-02 -5.000000e-02  2.500000e-02
      vertex   5.551115e-17 -5.000000e-02  2.500000e-02
    endloop
  endfacet
  facet normal  0.000000e+00  2.588191e-01  9.659258e-01
    outer loop
      vertex   2.000000e-02 -5.000000e-02 -2.500000e-02
      vertex   5.551115e-17 -5.000000e-02 -2.500000e-02
      vertex   2.000000e-02 -6.250000e-02 -2.165063e-02
    endloop
  endfacet
  facet normal  0.000000e+00  2.588191e-01  9.659258e-01
    outer loop
      vertex   2.000000e-02 -6.250000e-02 -2.165063e-02
      vertex   5.551115e-17 -5.000000e-02 -2.500000e-02
      vertex   5.551115e-17 -6.250000e-02 -2.165063e-02
    endloop
  endfacet
  facet normal  0.000000e+00  7.071069e-01  7.071067e-01
    outer loop
      vertex   2.000000e-02 -6.250000e-02 -2.165063e-02
      vertex   5.551115e-17 -6.250000e-02 -2.165063e-02
      vertex   2.000000e-02 -7.165063e-02 -1.250000e-02
    endloop
  endfacet
  facet normal  0.000000e+00  7.071069e-01  7.071067e-01
    outer loop
      vertex   2.000000e-02 -7.165063e-02 -1.250000e-02
      vertex   5.551115e-17 -6.250000e-02 -2.165063e-02
      vertex   5.551115e-17 -7.165063e-02 -1.250000e-02
    endloop
  endfacet
  facet normal  0.000000e+00  9.659258e-01  2.588195e-01
    outer loop
      vertex   2.000000e-02 -7.165063e-02 -1.250000e-02
      vertex   5.551115e-17 -7.165063e-02 -1.250000e-02
      vertex   2.000000e-02 -7.500000e-02  6.041089e-17
    endloop
  endfacet
  facet normal  0.000000e+00  9.659258e-01  2.588195e-01
    outer loop
      vertex   2.000000e-02 -7.500000e-02  6.041089e-17
      vertex   5.551115e-17 -7.165063e-02 -1.250000e-02
      vertex   5.551115e-17 -7.500000e-02  6.041089e-17
    endloop
  endfacet
  facet normal  0.000000e+00  9.659258e-01 -2.588195e-01
    outer loop
      vertex   2.000000e-02 -7.500000e-02  6.041089e-17
      vertex   5.551115e-17 -7.500000e-02  6.041089e-17
      vertex   2.000000e-02 -7.165063e-02  1.250000e-02
    endloop
  endfacet
  facet normal  0.000000e+00  9.659258e-01 -2.588195e-01
    outer loop
      vertex   2.000000e-02 -7.165063e-02  1.250000e-02
      vertex   5.551115e-17 -7.500000e-02  6.041089e-17
      vertex   5.551115e-17 -7.165063e-02  1.250000e-02
    endloop
  endfacet
  facet normal  0.000000e+00  7.071069e-01 -7.071067e-01
    outer loop
      vertex   2.000000e-02 -7.165063e-02  1.250000e-02
      vertex   5.551115e-17 -7.165063e-02  1.250000e-02
      vertex   2.000000e-02 -6.250000e-02  2.165063e-02
    endloop
  endfacet
  facet normal  0.000000e+00  7.071069e-01 -7.071067e-01
    outer loop
      vertex   2.000000e-02 -6.250000e-02  2.165063e-02
      vertex   5.551115e-17 -7.165063e-02  1.250000e-02
      vertex   5.551115e-17 -6.250000e-02  2.165063e-02
    endloop
  endfacet
  facet normal  0.000000e+00  2.588191e-01 -9.659258e-01
    outer loop
      vertex   2.000000e-02 -6.250000e-02  2.165063e-02
      vertex   5.551115e-17 -6.250000e-02  2.165063e-02
      vertex   2.000000e-02 -5.000000e-02  2.500000e-02
    endloop
  endfacet
  facet normal  0.000000e+00  2.588191e-01 -9.659258e-01
    outer loop
      vertex   2.000000e-02 -5.000000e-02  2.500000e-02
      vertex   5.551115e-17 -6.250000e-02  2.165063e-02
      vertex   5.551115e-17 -5.000000e-02  2.500000e-02
    endloop
  endfacet
  facet normal  0.000000e+00 -0.000000e+00  1.000000e+00
    outer loop
      vertex   2.000000e-02 -5.000000e-02 -2.500000e-02
      vertex   2.000000e-02  5.000000e-02 -2.500000e-02
      vertex   5.551115e-17 -5.000000e-02 -2.500000e-02
    endloop
  endfacet
  facet normal  0.000000e+00  0.000000e+00  1.000000e+00
    outer loop
      vertex   5.551115e-17 -5.000000e-02 -2.500000e-02
      vertex   2.000000e-02  5.000000e-02 -2.500000e-02
      vertex   5.551115e-17  5.000000e-02 -2.500000e-02
    endloop
  endfacet
  facet normal -1.000000e+00  0.000000e+00 -0.000000e+00
    outer loop
      vertex   2.000000e-02 -7.165063e-02  1.250000e-02
      vertex   2.000000e-02 -6.250000e-02  2.165063e-02
      vertex   2.000000e-02 -7.500000e-02  6.041089e-17
    endloop
  endfacet
  facet normal -1.000000e+00  0.000000e+00  0.000000e+00
    outer loop
      vertex   2.000000e-02 -7.500000e-02  6.041089e-17
      vertex   2.000000e-02 -6.250000e-02  2.165063e-02
      vertex   2.000000e-02 -5.000000e-02  2.500000e-02
    endloop
  endfacet
  facet normal -1.000000e+00  0.000000e+00  0.000000e+00
    outer loop
      vertex   2.000000e-02 -5.000000e-02  2.500000e-02
      vertex   2.000000e-02  5.000000e-02  2.500000e-02
      vertex   2.000000e-02  5.000000e-02 -2.500000e-02
    endloop
  endfacet
  facet normal -1.000000e+00  0.000000e+00  0.000000e+00
    outer loop
      vertex   2.000000e-02  5.000000e-02 -2.500000e-02
      vertex   2.000000e-02  5.000000e-02  2.500000e-02
      vertex   2.000000e-02  6.250000e-02  2.165063e-02
    endloop
  endfacet
  facet normal -1.000000e+00  0.000000e+00  0.000000e+00
    outer loop
      vertex   2.000000e-02 -7.165063e-02 -1.250000e-02
      vertex   2.000000e-02 -7.500000e-02  6.041089e-17
      vertex   2.000000e-02 -6.250000e-02 -2.165063e-02
    endloop
  endfacet
  facet normal -1.000000e+00  0.000000e+00  0.000000e+00
    outer loop
      vertex   2.000000e-02 -6.250000e-02 -2.165063e-02
      vertex   2.000000e-02 -7.500000e-02  6.041089e-17
      vertex   2.000000e-02 -5.000000e-02  2.500000e-02
    endloop
  endfacet
  facet normal -1.000000e+00  0.000000e+00  0.000000e+00
    outer loop
      vertex   2.000000e-02 -6.250000e-02 -2.165063e-02
      vertex   2.000000e-02 -5.000000e-02  2.500000e-02
      vertex   2.000000e-02 -5.000000e-02 -2.500000e-02
    endloop
  endfacet
  facet normal -1.000000e+00  0.000000e+00  0.000000e+00
    outer loop
      vertex   2.000000e-02 -5.000000e-02 -2.500000e-02
      vertex   2.000000e-02 -5.000000e-02  2.500000e-02
      vertex   2.000000e-02  5.000000e-02 -2.500000e-02
    endloop
  endfacet
  facet normal -1.000000e+00 -0.000000e+00  0.000000e+00
    outer loop
      vertex   2.000000e-02  7.165063e-02 -1.250000e-02
      vertex   2.000000e-02  6.250000e-02 -2.165063e-02
      vertex   2.000000e-02  7.500000e-02  2.673311e-17
    endloop
  endfacet
  facet normal -1.000000e+00  0.000000e+00  0.000000e+00
    outer loop
      vertex   2.000000e-02  7.500000e-02  2.673311e-17
      vertex   2.000000e-02  6.250000e-02 -2.165063e-02
      vertex   2.000000e-02  5.000000e-02 -2.500000e-02
    endloop
  endfacet
  facet normal -1.000000e+00 -0.000000e+00  0.000000e+00
    outer loop
      vertex   2.000000e-02  7.500000e-02  2.673311e-17
      vertex   2.000000e-02  5.000000e-02 -2.500000e-02
      vertex   2.000000e-02  7.165063e-02  1.250000e-02
    endloop
  endfacet
  facet normal -1.000000e+00 -0.000000e+00  0.000000e+00
    outer loop
      vertex   2.000000e-02  7.165063e-02  1.250000e-02
      vertex   2.000000e-02  5.000000e-02 -2.500000e-02
      vertex   2.000000e-02  6.250000e-02  2.165063e-02
    endloop
  endfacet
  facet normal  0.000000e+00 -9.659259e-01  2.588191e-01
    outer loop
      vertex   1.250000e-01 -2.500000e-02  4.510281e-17
      vertex   1.450000e-01 -2.165063e-02  1.250000e-02
      vertex   1.250000e-01 -2.165063e-02  1.250000e-02
    endloop
  endfacet
  facet normal  0.000000e+00 -7.071068e-01  7.071068e-01
    outer loop
      vertex   1.250000e-01 -2.165063e-02  1.250000e-02
      vertex   1.450000e-01 -2.165063e-02  1.250000e-02
      vertex   1.450000e-01 -1.250000e-02  2.165063e-02
    endloop
  endfacet
  facet normal  0.000000e+00 -7.071068e-01  7.071068e-01
    outer loop
      vertex   1.250000e-01 -2.165063e-02  1.250000e-02
      vertex   1.450000e-01 -1.250000e-02  2.165063e-02
      vertex   1.250000e-01 -1.250000e-02  2.165063e-02
    endloop
  endfacet
  facet normal  0.000000e+00 -2.588191e-01  9.659259e-01
    outer loop
      vertex   1.250000e-01 -1.250000e-02  2.165063e-02
      vertex   1.450000e-01 -1.250000e-02  2.165063e-02
      vertex   1.450000e-01  2.983299e-17  2.500000e-02
    endloop
  endfacet
  facet normal  0.000000e+00 -2.588191e-01  9.659259e-01
    outer loop
      vertex   1.250000e-01 -1.250000e-02  2.165063e-02
      vertex   1.450000e-01  2.983299e-17  2.500000e-02
      vertex   1.250000e-01  2.636354e-17  2.500000e-02
    endloop
  endfacet
  facet normal -4.489796e-17  2.588191e-01  9.659259e-01
    outer loop
      vertex   1.250000e-01  2.636354e-17  2.500000e-02
      vertex   1.450000e-01  2.983299e-17  2.500000e-02
      vertex   1.450000e-01  1.250000e-02  2.165063e-02
    endloop
  endfacet
  facet normal  0.000000e+00  2.588191e-01  9.659259e-01
    outer loop
      vertex   1.250000e-01  2.636354e-17  2.500000e-02
      vertex   1.450000e-01  1.250000e-02  2.165063e-02
      vertex   1.250000e-01  1.250000e-02  2.165063e-02
    endloop
  endfacet
  facet normal -0.000000e+00  7.071068e-01  7.071068e-01
    outer loop
      vertex   1.250000e-01  1.250000e-02  2.165063e-02
      vertex   1.450000e-01  1.250000e-02  2.165063e-02
      vertex   1.450000e-01  2.165063e-02  1.250000e-02
    endloop
  endfacet
  facet normal  0.000000e+00  7.071068e-01  7.071068e-01
    outer loop
      vertex   1.250000e-01  1.250000e-02  2.165063e-02
      vertex   1.450000e-01  2.165063e-02  1.250000e-02
      vertex   1.250000e-01  2.165063e-02  1.250000e-02
    endloop
  endfacet
  facet normal -0.000000e+00  9.659259e-01  2.588191e-01
    outer loop
      vertex   1.250000e-01  2.165063e-02  1.250000e-02
      vertex   1.450000e-01  2.165063e-02  1.250000e-02
      vertex   1.450000e-01  2.500000e-02  5.926666e-17
    endloop
  endfacet
  facet normal  0.000000e+00  9.659259e-01  2.588191e-01
    outer loop
      vertex   1.250000e-01  2.165063e-02  1.250000e-02
      vertex   1.450000e-01  2.500000e-02  5.926666e-17
      vertex   1.250000e-01  2.500000e-02  5.926666e-17
    endloop
  endfacet
  facet normal  0.000000e+00  9.659259e-01 -2.588191e-01
    outer loop
      vertex   1.250000e-01  2.500000e-02  5.926666e-17
      vertex   1.450000e-01  2.500000e-02  5.926666e-17
      vertex   1.450000e-01  2.165063e-02 -1.250000e-02
    endloop
  endfacet
  facet normal  0.000000e+00  9.659259e-01 -2.588191e-01
    outer loop
      vertex   1.250000e-01  2.500000e-02  5.926666e-17
      vertex   1.450000e-01  2.165063e-02 -1.250000e-02
      vertex   1.250000e-01  2.165063e-02 -1.250000e-02
    endloop
  endfacet
  facet normal  0.000000e+00  7.071068e-01 -7.071068e-01
    outer loop
      vertex   1.250000e-01  2.165063e-02 -1.250000e-02
      vertex   1.450000e-01  2.165063e-02 -1.250000e-02
      vertex   1.450000e-01  1.250000e-02 -2.165063e-02
    endloop
  endfacet
  facet normal  0.000000e+00  7.071068e-01 -7.071068e-01
    outer loop
      vertex   1.250000e-01  2.165063e-02 -1.250000e-02
      vertex   1.450000e-01  1.250000e-02 -2.165063e-02
      vertex   1.250000e-01  1.250000e-02 -2.165063e-02
    endloop
  endfacet
  facet normal  0.000000e+00  2.588191e-01 -9.659259e-01
    outer loop
      vertex   1.250000e-01  1.250000e-02 -2.165063e-02
      vertex   1.450000e-01  1.250000e-02 -2.165063e-02
      vertex   1.450000e-01  6.371180e-17 -2.500000e-02
    endloop
  endfacet
  facet normal  0.000000e+00  2.588191e-01 -9.659259e-01
    outer loop
      vertex   1.250000e-01  1.250000e-02 -2.165063e-02
      vertex   1.450000e-01  6.371180e-17 -2.500000e-02
      vertex   1.250000e-01  6.024235e-17 -2.500000e-02
    endloop
  endfacet
  facet normal  4.489793e-17 -2.588191e-01 -9.659259e-01
    outer loop
      vertex   1.250000e-01  6.024235e-17 -2.500000e-02
      vertex   1.450000e-01  6.371180e-17 -2.500000e-02
      vertex   1.450000e-01 -1.250000e-02 -2.165063e-02
    endloop
  endfacet
  facet normal  0.000000e+00 -2.588191e-01 -9.659259e-01
    outer loop
      vertex   1.250000e-01  6.024235e-17 -2.500000e-02
      vertex   1.450000e-01 -1.250000e-02 -2.165063e-02
      vertex   1.250000e-01 -1.250000e-02 -2.165063e-02
    endloop
  endfacet
  facet normal  0.000000e+00 -7.071068e-01 -7.071068e-01
    outer loop
      vertex   1.250000e-01 -1.250000e-02 -2.165063e-02
      vertex   1.450000e-01 -1.250000e-02 -2.165063e-02
      vertex   1.450000e-01 -2.165063e-02 -1.250000e-02
    endloop
  endfacet
  facet normal  0.000000e+00 -7.071068e-01 -7.071068e-01
    outer loop
      vertex   1.250000e-01 -1.250000e-02 -2.165063e-02
      vertex   1.450000e-01 -2.165063e-02 -1.250000e-02
      vertex   1.250000e-01 -2.165063e-02 -1.250000e-02
    endloop
  endfacet
  facet normal  0.000000e+00 -9.659259e-01 -2.588191e-01
    outer loop
      vertex   1.250000e-01 -2.165063e-02 -1.250000e-02
      vertex   1.450000e-01 -2.165063e-02 -1.250000e-02
      vertex   1.450000e-01 -2.500000e-02  4.510281e-17
    endloop
  endfacet
  facet normal  0.000000e+00 -9.659259e-01 -2.588191e-01
    outer loop
      vertex   1.250000e-01 -2.165063e-02 -1.250000e-02
      vertex   1.450000e-01 -2.500000e-02  4.510281e-17
      vertex   1.250000e-01 -2.500000e-02  4.510281e-17
    endloop
  endfacet
  facet normal  0.000000e+00 -9.659259e-01  2.588191e-01
    outer loop
      vertex   1.250000e-01 -2.500000e-02  4.510281e-17
      vertex   1.450000e-01 -2.500000e-02  4.510281e-17
      vertex   1.450000e-01 -2.165063e-02  1.250000e-02
    endloop
  endfacet
  facet normal  1.000000e+00  0.000000e+00 -0.000000e+00
    outer loop
      vertex   1.450000e-01  1.250000e-02 -2.165063e-02
      vertex   1.450000e-01  2.165063e-02 -1.250000e-02
      vertex   1.450000e-01  3.691492e-17  4.510281e-17
    endloop
  endfacet
  facet normal  1.000000e+00 -0.000000e+00  0.000000e+00
    outer loop
      vertex   1.450000e-01  3.691492e-17  4.510281e-17
      vertex   1.450000e-01  2.165063e-02 -1.250000e-02
      vertex   1.450000e-01  2.500000e-02  4.816443e-17
    endloop
  endfacet
  facet normal  1.000000e+00  0.000000e+00  0.000000e+00
    outer loop
      vertex   1.450000e-01  3.691492e-17  4.510281e-17
      vertex   1.450000e-01  2.500000e-02  4.816443e-17
      vertex   1.450000e-01  2.165063e-02  1.250000e-02
    endloop
  endfacet
  facet normal  1.000000e+00 -0.000000e+00  0.000000e+00
    outer loop
      vertex   1.450000e-01 -2.165063e-02 -1.250000e-02
      vertex   1.450000e-01 -1.250000e-02 -2.165063e-02
      vertex   1.450000e-01  3.691492e-17  4.510281e-17
    endloop
  endfacet
  facet normal  1.000000e+00  0.000000e+00  0.000000e+00
    outer loop
      vertex   1.450000e-01  3.691492e-17  4.510281e-17
      vertex   1.450000e-01 -1.250000e-02 -2.165063e-02
      vertex   1.450000e-01  6.371180e-17 -2.500000e-02
    endloop
  endfacet
  facet normal  1.000000e+00  0.000000e+00  0.000000e+00
    outer loop
      vertex   1.450000e-01  3.691492e-17  4.510281e-17
      vertex   1.450000e-01  6.371180e-17 -2.500000e-02
      vertex   1.450000e-01  1.250000e-02 -2.165063e-02
    endloop
  endfacet
  facet normal  1.000000e+00  0.000000e+00  0.000000e+00
    outer loop
      vertex   1.450000e-01 -1.250000e-02  2.165063e-02
      vertex   1.450000e-01 -2.165063e-02  1.250000e-02
      vertex   1.450000e-01  3.691492e-17  4.510281e-17
    endloop
  endfacet
  facet normal  1.000000e+00  0.000000e+00  0.000000e+00
    outer loop
      vertex   1.450000e-01  3.691492e-17  4.510281e-17
      vertex   1.450000e-01 -2.165063e-02  1.250000e-02
      vertex   1.450000e-01 -2.500000e-02  4.510281e-17
    endloop
  endfacet
  facet normal  1.000000e+00  0.000000e+00  0.000000e+00
    outer loop
      vertex   1.450000e-01  3.691492e-17  4.510281e-17
      vertex   1.450000e-01 -2.500000e-02  4.510281e-17
      vertex   1.450000e-01 -2.165063e-02 -1.250000e-02
    endloop
  endfacet
  facet normal  1.000000e+00  0.000000e+00  0.000000e+00
    outer loop
      vertex   1.450000e-01  2.165063e-02  1.250000e-02
      vertex   1.450000e-01  1.250000e-02  2.165063e-02
      vertex   1.450000e-01  3.691492e-17  4.510281e-17
    endloop
  endfacet
  facet normal  1.000000e+00  0.000000e+00 -0.000000e+00
    outer loop
      vertex   1.450000e-01  3.691492e-17  4.510281e-17
      vertex   1.450000e-01  1.250000e-02  2.165063e-02
      vertex   1.450000e-01  2.983299e-17  2.500000e-02
    endloop
  endfacet
  facet normal  1.000000e+00  0.000000e+00  0.000000e+00
    outer loop
      vertex   1.450000e-01  3.691492e-17  4.510281e-17
      vertex   1.450000e-01  2.983299e-17  2.500000e-02
      vertex   1.450000e-01 -1.250000e-02  2.165063e-02
    endloop
  endfacet
endsolid vcg
