solid STL generated by MeshLab
  facet normal  1.000000e+00  0.000000e+00  0.000000e+00
    outer loop
      vertex   1.250000e-01 -5.000000e-01 -6.250000e-02
      vertex   1.250000e-01  5.000000e-01 -6.250000e-02
      vertex   1.250000e-01  2.081668e-16 -1.526557e-16
    endloop
  endfacet
  facet normal  1.000000e+00 -0.000000e+00  0.000000e+00
    outer loop
      vertex   1.250000e-01  2.081668e-16 -1.526557e-16
      vertex   1.250000e-01  5.000000e-01 -6.250000e-02
      vertex   1.250000e-01  5.038911e-01 -1.526557e-16
    endloop
  endfacet
  facet normal  1.000000e+00  0.000000e+00  0.000000e+00
    outer loop
      vertex   1.250000e-01 -3.125000e-02  6.250000e-02
      vertex   1.250000e-01 -5.000000e-01  6.250000e-02
      vertex   1.250000e-01 -3.125000e-02  3.125000e-02
    endloop
  endfacet
  facet normal  1.000000e+00  0.000000e+00  0.000000e+00
    outer loop
      vertex   1.250000e-01 -3.125000e-02  3.125000e-02
      vertex   1.250000e-01 -5.000000e-01  6.250000e-02
      vertex   1.250000e-01 -5.038911e-01  1.318390e-16
    endloop
  endfacet
  facet normal  1.000000e+00  0.000000e+00  0.000000e+00
    outer loop
      vertex   1.250000e-01 -3.125000e-02  3.125000e-02
      vertex   1.250000e-01 -5.038911e-01  1.318390e-16
      vertex   1.250000e-01 -2.706329e-02  1.562500e-02
    endloop
  endfacet
  facet normal  1.000000e+00  0.000000e+00  0.000000e+00
    outer loop
      vertex   1.250000e-01 -2.706329e-02  1.562500e-02
      vertex   1.250000e-01 -5.038911e-01  1.318390e-16
      vertex   1.250000e-01 -5.000000e-01 -6.250000e-02
    endloop
  endfacet
  facet normal  1.000000e+00  0.000000e+00  0.000000e+00
    outer loop
      vertex   1.250000e-01 -2.706329e-02  1.562500e-02
      vertex   1.250000e-01 -5.000000e-01 -6.250000e-02
      vertex   1.250000e-01 -1.562500e-02  4.186706e-03
    endloop
  endfacet
  facet normal  1.000000e+00  0.000000e+00  0.000000e+00
    outer loop
      vertex   1.250000e-01 -1.562500e-02  4.186706e-03
      vertex   1.250000e-01 -5.000000e-01 -6.250000e-02
      vertex   1.250000e-01  2.081668e-16 -1.526557e-16
    endloop
  endfacet
  facet normal -1.000000e+00  0.000000e+00  0.000000e+00
    outer loop
      vertex   1.110223e-16  6.250000e-02 -2.165063e-02
      vertex   1.110223e-16  7.165063e-02 -1.250000e-02
      vertex   1.110223e-16  5.000000e-01 -6.250000e-02
    endloop
  endfacet
  facet normal -1.000000e+00 -0.000000e+00  0.000000e+00
    outer loop
      vertex   1.110223e-16 -7.165063e-02 -1.250000e-02
      vertex   1.110223e-16 -5.000000e-01 -6.250000e-02
      vertex   1.110223e-16 -7.500000e-02 -1.387779e-16
    endloop
  endfacet
  facet normal -1.000000e+00 -0.000000e+00  0.000000e+00
    outer loop
      vertex   1.110223e-16 -7.500000e-02 -1.387779e-16
      vertex   1.110223e-16 -5.000000e-01 -6.250000e-02
      vertex   1.110223e-16 -5.038911e-01  1.318390e-16
    endloop
  endfacet
  facet normal -1.000000e+00  0.000000e+00  0.000000e+00
    outer loop
      vertex   1.110223e-16 -7.500000e-02 -1.387779e-16
      vertex   1.110223e-16 -5.038911e-01  1.318390e-16
      vertex   1.110223e-16 -7.165063e-02  1.250000e-02
    endloop
  endfacet
  facet normal -1.000000e+00 -0.000000e+00  0.000000e+00
    outer loop
      vertex   1.110223e-16 -7.165063e-02  1.250000e-02
      vertex   1.110223e-16 -5.038911e-01  1.318390e-16
      vertex   1.110223e-16 -5.000000e-01  6.250000e-02
    endloop
  endfacet
  facet normal -1.000000e+00  0.000000e+00  0.000000e+00
    outer loop
      vertex   1.110223e-16  5.000000e-01 -6.250000e-02
      vertex   1.110223e-16  7.165063e-02 -1.250000e-02
      vertex   1.110223e-16  5.038911e-01 -2.775558e-16
    endloop
  endfacet
  facet normal -1.000000e+00 -0.000000e+00  0.000000e+00
    outer loop
      vertex   1.110223e-16  5.038911e-01 -2.775558e-16
      vertex   1.110223e-16  7.165063e-02 -1.250000e-02
      vertex   1.110223e-16  7.500000e-02 -1.665335e-16
    endloop
  endfacet
  facet normal -1.000000e+00  0.000000e+00  0.000000e+00
    outer loop
      vertex   1.110223e-16  5.038911e-01 -2.775558e-16
      vertex   1.110223e-16  7.500000e-02 -1.665335e-16
      vertex   1.110223e-16  5.000000e-01  6.250000e-02
    endloop
  endfacet
  facet normal -1.000000e+00  0.000000e+00  0.000000e+00
    outer loop
      vertex   1.110223e-16  5.000000e-01  6.250000e-02
      vertex   1.110223e-16  7.500000e-02 -1.665335e-16
      vertex   1.110223e-16  7.165063e-02  1.250000e-02
    endloop
  endfacet
  facet normal -1.000000e+00  0.000000e+00  0.000000e+00
    outer loop
      vertex   1.110223e-16  5.000000e-01  6.250000e-02
      vertex   1.110223e-16  7.165063e-02  1.250000e-02
      vertex   1.110223e-16  6.250000e-02  2.165063e-02
    endloop
  endfacet
  facet normal -1.000000e+00  0.000000e+00 -0.000000e+00
    outer loop
      vertex   1.110223e-16 -7.165063e-02 -1.250000e-02
      vertex   1.110223e-16 -6.250000e-02 -2.165063e-02
      vertex   1.110223e-16 -5.000000e-01 -6.250000e-02
    endloop
  endfacet
  facet normal -1.000000e+00  0.000000e+00  0.000000e+00
    outer loop
      vertex   1.110223e-16 -5.000000e-01 -6.250000e-02
      vertex   1.110223e-16 -6.250000e-02 -2.165063e-02
      vertex   1.110223e-16 -5.000000e-02 -2.500000e-02
    endloop
  endfacet
  facet normal -1.000000e+00  0.000000e+00  0.000000e+00
    outer loop
      vertex   1.110223e-16 -5.000000e-01 -6.250000e-02
      vertex   1.110223e-16 -5.000000e-02 -2.500000e-02
      vertex   1.110223e-16  5.000000e-01 -6.250000e-02
    endloop
  endfacet
  facet normal -1.000000e+00  0.000000e+00  0.000000e+00
    outer loop
      vertex   1.110223e-16  5.000000e-01 -6.250000e-02
      vertex   1.110223e-16 -5.000000e-02 -2.500000e-02
      vertex   1.110223e-16  5.000000e-02 -2.500000e-02
    endloop
  endfacet
  facet normal -1.000000e+00  0.000000e+00  0.000000e+00
    outer loop
      vertex   1.110223e-16  5.000000e-01 -6.250000e-02
      vertex   1.110223e-16  5.000000e-02 -2.500000e-02
      vertex   1.110223e-16  6.250000e-02 -2.165063e-02
    endloop
  endfacet
  facet normal -1.000000e+00  0.000000e+00  0.000000e+00
    outer loop
      vertex   1.110223e-16  6.250000e-02  2.165063e-02
      vertex   1.110223e-16  5.000000e-02  2.500000e-02
      vertex   1.110223e-16  5.000000e-01  6.250000e-02
    endloop
  endfacet
  facet normal -1.000000e+00  0.000000e+00  0.000000e+00
    outer loop
      vertex   1.110223e-16  5.000000e-01  6.250000e-02
      vertex   1.110223e-16  5.000000e-02  2.500000e-02
      vertex   1.110223e-16 -5.000000e-02  2.500000e-02
    endloop
  endfacet
  facet normal -1.000000e+00 -0.000000e+00  0.000000e+00
    outer loop
      vertex   1.110223e-16  5.000000e-01  6.250000e-02
      vertex   1.110223e-16 -5.000000e-02  2.500000e-02
      vertex   1.110223e-16 -5.000000e-01  6.250000e-02
    endloop
  endfacet
  facet normal -1.000000e+00  0.000000e+00  0.000000e+00
    outer loop
      vertex   1.110223e-16 -5.000000e-01  6.250000e-02
      vertex   1.110223e-16 -5.000000e-02  2.500000e-02
      vertex   1.110223e-16 -6.250000e-02  2.165063e-02
    endloop
  endfacet
  facet normal -1.000000e+00  0.000000e+00  0.000000e+00
    outer loop
      vertex   1.110223e-16 -5.000000e-01  6.250000e-02
      vertex   1.110223e-16 -6.250000e-02  2.165063e-02
      vertex   1.110223e-16 -7.165063e-02  1.250000e-02
    endloop
  endfacet
  facet normal  0.000000e+00  0.000000e+00  1.000000e+00
    outer loop
      vertex   6.250000e-02  5.000000e-01  6.250000e-02
      vertex   1.110223e-16  5.000000e-01  6.250000e-02
      vertex   6.250000e-02 -3.125000e-02  6.250000e-02
    endloop
  endfacet
  facet normal  0.000000e+00  0.000000e+00  1.000000e+00
    outer loop
      vertex   6.250000e-02 -3.125000e-02  6.250000e-02
      vertex   1.110223e-16  5.000000e-01  6.250000e-02
      vertex   1.110223e-16 -5.000000e-01  6.250000e-02
    endloop
  endfacet
  facet normal -0.000000e+00  0.000000e+00  1.000000e+00
    outer loop
      vertex   6.250000e-02 -3.125000e-02  6.250000e-02
      vertex   1.110223e-16 -5.000000e-01  6.250000e-02
      vertex   1.250000e-01 -3.125000e-02  6.250000e-02
    endloop
  endfacet
  facet normal  0.000000e+00  0.000000e+00  1.000000e+00
    outer loop
      vertex   1.250000e-01 -3.125000e-02  6.250000e-02
      vertex   1.110223e-16 -5.000000e-01  6.250000e-02
      vertex   1.250000e-01 -5.000000e-01  6.250000e-02
    endloop
  endfacet
  facet normal  0.000000e+00  0.000000e+00 -1.000000e+00
    outer loop
      vertex   1.110223e-16 -5.000000e-01 -6.250000e-02
      vertex   1.110223e-16  5.000000e-01 -6.250000e-02
      vertex   1.250000e-01 -5.000000e-01 -6.250000e-02
    endloop
  endfacet
  facet normal  0.000000e+00  0.000000e+00 -1.000000e+00
    outer loop
      vertex   1.250000e-01 -5.000000e-01 -6.250000e-02
      vertex   1.110223e-16  5.000000e-01 -6.250000e-02
      vertex   1.250000e-01  5.000000e-01 -6.250000e-02
    endloop
  endfacet
  facet normal -1.227018e-16  9.980677e-01 -6.213746e-02
    outer loop
      vertex   6.250000e-02  5.038911e-01 -1.526557e-16
      vertex   1.250000e-01  5.038911e-01 -2.760734e-16
      vertex   1.250000e-01  5.000000e-01 -6.250000e-02
    endloop
  endfacet
  facet normal -0.000000e+00  9.980677e-01  6.213746e-02
    outer loop
      vertex   1.110223e-16  5.000000e-01  6.250000e-02
      vertex   6.250000e-02  5.000000e-01  6.250000e-02
      vertex   6.250000e-02  5.038911e-01 -1.526557e-16
    endloop
  endfacet
  facet normal  0.000000e+00  9.980677e-01  6.213746e-02
    outer loop
      vertex   1.110223e-16  5.000000e-01  6.250000e-02
      vertex   6.250000e-02  5.038911e-01 -1.526557e-16
      vertex   1.110223e-16  5.038911e-01 -2.760734e-16
    endloop
  endfacet
  facet normal  1.227018e-16  9.980677e-01 -6.213746e-02
    outer loop
      vertex   1.110223e-16  5.038911e-01 -2.760734e-16
      vertex   6.250000e-02  5.038911e-01 -1.526557e-16
      vertex   1.250000e-01  5.000000e-01 -6.250000e-02
    endloop
  endfacet
  facet normal  0.000000e+00  9.980677e-01 -6.213746e-02
    outer loop
      vertex   1.110223e-16  5.038911e-01 -2.760734e-16
      vertex   1.250000e-01  5.000000e-01 -6.250000e-02
      vertex   1.110223e-16  5.000000e-01 -6.250000e-02
    endloop
  endfacet
  facet normal  0.000000e+00 -9.980677e-01 -6.213746e-02
    outer loop
      vertex   1.110223e-16 -5.000000e-01 -6.250000e-02
      vertex   1.250000e-01 -5.000000e-01 -6.250000e-02
      vertex   1.250000e-01 -5.038911e-01  1.328258e-16
    endloop
  endfacet
  facet normal  0.000000e+00 -9.980677e-01 -6.213746e-02
    outer loop
      vertex   1.110223e-16 -5.000000e-01 -6.250000e-02
      vertex   1.250000e-01 -5.038911e-01  1.328258e-16
      vertex   1.110223e-16 -5.038911e-01  1.328258e-16
    endloop
  endfacet
  facet normal  0.000000e+00 -9.980677e-01  6.213746e-02
    outer loop
      vertex   1.110223e-16 -5.038911e-01  1.328258e-16
      vertex   1.250000e-01 -5.038911e-01  1.328258e-16
      vertex   1.250000e-01 -5.000000e-01  6.250000e-02
    endloop
  endfacet
  facet normal  0.000000e+00 -9.980677e-01  6.213746e-02
    outer loop
      vertex   1.110223e-16 -5.038911e-01  1.328258e-16
      vertex   1.250000e-01 -5.000000e-01  6.250000e-02
      vertex   1.110223e-16 -5.000000e-01  6.250000e-02
    endloop
  endfacet
  facet normal  0.000000e+00  0.000000e+00  1.000000e+00
    outer loop
      vertex   1.250000e-01  5.038911e-01 -1.526557e-16
      vertex   6.250000e-02  5.038911e-01 -1.526557e-16
      vertex   1.250000e-01  2.081668e-16 -1.526557e-16
    endloop
  endfacet
  facet normal  0.000000e+00  0.000000e+00  1.000000e+00
    outer loop
      vertex   1.250000e-01  2.081668e-16 -1.526557e-16
      vertex   6.250000e-02  5.038911e-01 -1.526557e-16
      vertex   6.250000e-02  2.081668e-16 -1.526557e-16
    endloop
  endfacet
  facet normal  1.000000e+00  0.000000e+00  0.000000e+00
    outer loop
      vertex   6.250000e-02  2.081668e-16 -1.526557e-16
      vertex   6.250000e-02  5.038911e-01 -1.526557e-16
      vertex   6.250000e-02  5.000000e-01  6.250000e-02
    endloop
  endfacet
  facet normal  1.000000e+00 -0.000000e+00 -0.000000e+00
    outer loop
      vertex   6.250000e-02 -2.706329e-02  1.562500e-02
      vertex   6.250000e-02 -1.562500e-02  4.186706e-03
      vertex   6.250000e-02 -3.125000e-02  3.125000e-02
    endloop
  endfacet
  facet normal  1.000000e+00  0.000000e+00  0.000000e+00
    outer loop
      vertex   6.250000e-02 -3.125000e-02  3.125000e-02
      vertex   6.250000e-02 -1.562500e-02  4.186706e-03
      vertex   6.250000e-02  2.081668e-16 -1.526557e-16
    endloop
  endfacet
  facet normal  1.000000e+00 -0.000000e+00  0.000000e+00
    outer loop
      vertex   6.250000e-02 -3.125000e-02  3.125000e-02
      vertex   6.250000e-02  2.081668e-16 -1.526557e-16
      vertex   6.250000e-02 -3.125000e-02  6.250000e-02
    endloop
  endfacet
  facet normal  1.000000e+00 -0.000000e+00  0.000000e+00
    outer loop
      vertex   6.250000e-02 -3.125000e-02  6.250000e-02
      vertex   6.250000e-02  2.081668e-16 -1.526557e-16
      vertex   6.250000e-02  5.000000e-01  6.250000e-02
    endloop
  endfacet
  facet normal -0.000000e+00 -2.588191e-01 -9.659258e-01
    outer loop
      vertex   2.000000e-02  5.000000e-02  2.500000e-02
      vertex   1.110223e-16  5.000000e-02  2.500000e-02
      vertex   2.000000e-02  6.250000e-02  2.165063e-02
    endloop
  endfacet
  facet normal -0.000000e+00 -2.588191e-01 -9.659258e-01
    outer loop
      vertex   2.000000e-02  6.250000e-02  2.165063e-02
      vertex   1.110223e-16  5.000000e-02  2.500000e-02
      vertex   1.110223e-16  6.250000e-02  2.165063e-02
    endloop
  endfacet
  facet normal -0.000000e+00 -7.071069e-01 -7.071067e-01
    outer loop
      vertex   2.000000e-02  6.250000e-02  2.165063e-02
      vertex   1.110223e-16  6.250000e-02  2.165063e-02
      vertex   2.000000e-02  7.165063e-02  1.250000e-02
    endloop
  endfacet
  facet normal -0.000000e+00 -7.071069e-01 -7.071067e-01
    outer loop
      vertex   2.000000e-02  7.165063e-02  1.250000e-02
      vertex   1.110223e-16  6.250000e-02  2.165063e-02
      vertex   1.110223e-16  7.165063e-02  1.250000e-02
    endloop
  endfacet
  facet normal -0.000000e+00 -9.659258e-01 -2.588195e-01
    outer loop
      vertex   2.000000e-02  7.165063e-02  1.250000e-02
      vertex   1.110223e-16  7.165063e-02  1.250000e-02
      vertex   2.000000e-02  7.500000e-02 -1.710254e-16
    endloop
  endfacet
  facet normal -0.000000e+00 -9.659258e-01 -2.588195e-01
    outer loop
      vertex   2.000000e-02  7.500000e-02 -1.710254e-16
      vertex   1.110223e-16  7.165063e-02  1.250000e-02
      vertex   1.110223e-16  7.500000e-02 -1.710254e-16
    endloop
  endfacet
  facet normal  0.000000e+00 -9.659258e-01  2.588195e-01
    outer loop
      vertex   2.000000e-02  7.500000e-02 -1.710254e-16
      vertex   1.110223e-16  7.500000e-02 -1.710254e-16
      vertex   2.000000e-02  7.165063e-02 -1.250000e-02
    endloop
  endfacet
  facet normal  0.000000e+00 -9.659258e-01  2.588195e-01
    outer loop
      vertex   2.000000e-02  7.165063e-02 -1.250000e-02
      vertex   1.110223e-16  7.500000e-02 -1.710254e-16
      vertex   1.110223e-16  7.165063e-02 -1.250000e-02
    endloop
  endfacet
  facet normal  0.000000e+00 -7.071069e-01  7.071067e-01
    outer loop
      vertex   2.000000e-02  7.165063e-02 -1.250000e-02
      vertex   1.110223e-16  7.165063e-02 -1.250000e-02
      vertex   2.000000e-02  6.250000e-02 -2.165063e-02
    endloop
  endfacet
  facet normal  0.000000e+00 -7.071069e-01  7.071067e-01
    outer loop
      vertex   2.000000e-02  6.250000e-02 -2.165063e-02
      vertex   1.110223e-16  7.165063e-02 -1.250000e-02
      vertex   1.110223e-16  6.250000e-02 -2.165063e-02
    endloop
  endfacet
  facet normal  0.000000e+00 -2.588191e-01  9.659258e-01
    outer loop
      vertex   2.000000e-02  6.250000e-02 -2.165063e-02
      vertex   1.110223e-16  6.250000e-02 -2.165063e-02
      vertex   2.000000e-02  5.000000e-02 -2.500000e-02
    endloop
  endfacet
  facet normal  0.000000e+00 -2.588191e-01  9.659258e-01
    outer loop
      vertex   2.000000e-02  5.000000e-02 -2.500000e-02
      vertex   1.110223e-16  6.250000e-02 -2.165063e-02
      vertex   1.110223e-16  5.000000e-02 -2.500000e-02
    endloop
  endfacet
  facet normal -0.000000e+00 -0.000000e+00 -1.000000e+00
    outer loop
      vertex   2.000000e-02  5.000000e-02  2.500000e-02
      vertex   2.000000e-02 -5.000000e-02  2.500000e-02
      vertex   1.110223e-16  5.000000e-02  2.500000e-02
    endloop
  endfacet
  facet normal  0.000000e+00  0.000000e+00 -1.000000e+00
    outer loop
      vertex   1.110223e-16  5.000000e-02  2.500000e-02
      vertex   2.000000e-02 -5.000000e-02  2.500000e-02
      vertex   1.110223e-16 -5.000000e-02  2.500000e-02
    endloop
  endfacet
  facet normal  0.000000e+00  2.588191e-01  9.659258e-01
    outer loop
      vertex   2.000000e-02 -5.000000e-02 -2.500000e-02
      vertex   1.110223e-16 -5.000000e-02 -2.500000e-02
      vertex   2.000000e-02 -6.250000e-02 -2.165063e-02
    endloop
  endfacet
  facet normal  0.000000e+00  2.588191e-01  9.659258e-01
    outer loop
      vertex   2.000000e-02 -6.250000e-02 -2.165063e-02
      vertex   1.110223e-16 -5.000000e-02 -2.500000e-02
      vertex   1.110223e-16 -6.250000e-02 -2.165063e-02
    endloop
  endfacet
  facet normal  0.000000e+00  7.071069e-01  7.071067e-01
    outer loop
      vertex   2.000000e-02 -6.250000e-02 -2.165063e-02
      vertex   1.110223e-16 -6.250000e-02 -2.165063e-02
      vertex   2.000000e-02 -7.165063e-02 -1.250000e-02
    endloop
  endfacet
  facet normal  0.000000e+00  7.071069e-01  7.071067e-01
    outer loop
      vertex   2.000000e-02 -7.165063e-02 -1.250000e-02
      vertex   1.110223e-16 -6.250000e-02 -2.165063e-02
      vertex   1.110223e-16 -7.165063e-02 -1.250000e-02
    endloop
  endfacet
  facet normal  0.000000e+00  9.659258e-01  2.588195e-01
    outer loop
      vertex   2.000000e-02 -7.165063e-02 -1.250000e-02
      vertex   1.110223e-16 -7.165063e-02 -1.250000e-02
      vertex   2.000000e-02 -7.500000e-02 -1.373476e-16
    endloop
  endfacet
  facet normal  0.000000e+00  9.659258e-01  2.588195e-01
    outer loop
      vertex   2.000000e-02 -7.500000e-02 -1.373476e-16
      vertex   1.110223e-16 -7.165063e-02 -1.250000e-02
      vertex   1.110223e-16 -7.500000e-02 -1.373476e-16
    endloop
  endfacet
  facet normal  0.000000e+00  9.659258e-01 -2.588195e-01
    outer loop
      vertex   2.000000e-02 -7.500000e-02 -1.373476e-16
      vertex   1.110223e-16 -7.500000e-02 -1.373476e-16
      vertex   2.000000e-02 -7.165063e-02  1.250000e-02
    endloop
  endfacet
  facet normal  0.000000e+00  9.659258e-01 -2.588195e-01
    outer loop
      vertex   2.000000e-02 -7.165063e-02  1.250000e-02
      vertex   1.110223e-16 -7.500000e-02 -1.373476e-16
      vertex   1.110223e-16 -7.165063e-02  1.250000e-02
    endloop
  endfacet
  facet normal  0.000000e+00  7.071069e-01 -7.071067e-01
    outer loop
      vertex   2.000000e-02 -7.165063e-02  1.250000e-02
      vertex   1.110223e-16 -7.165063e-02  1.250000e-02
      vertex   2.000000e-02 -6.250000e-02  2.165063e-02
    endloop
  endfacet
  facet normal  0.000000e+00  7.071069e-01 -7.071067e-01
    outer loop
      vertex   2.000000e-02 -6.250000e-02  2.165063e-02
      vertex   1.110223e-16 -7.165063e-02  1.250000e-02
      vertex   1.110223e-16 -6.250000e-02  2.165063e-02
    endloop
  endfacet
  facet normal  0.000000e+00  2.588191e-01 -9.659258e-01
    outer loop
      vertex   2.000000e-02 -6.250000e-02  2.165063e-02
      vertex   1.110223e-16 -6.250000e-02  2.165063e-02
      vertex   2.000000e-02 -5.000000e-02  2.500000e-02
    endloop
  endfacet
  facet normal  0.000000e+00  2.588191e-01 -9.659258e-01
    outer loop
      vertex   2.000000e-02 -5.000000e-02  2.500000e-02
      vertex   1.110223e-16 -6.250000e-02  2.165063e-02
      vertex   1.110223e-16 -5.000000e-02  2.500000e-02
    endloop
  endfacet
  facet normal  0.000000e+00 -0.000000e+00  1.000000e+00
    outer loop
      vertex   2.000000e-02 -5.000000e-02 -2.500000e-02
      vertex   2.000000e-02  5.000000e-02 -2.500000e-02
      vertex   1.110223e-16 -5.000000e-02 -2.500000e-02
    endloop
  endfacet
  facet normal  0.000000e+00  0.000000e+00  1.000000e+00
    outer loop
      vertex   1.110223e-16 -5.000000e-02 -2.500000e-02
      vertex   2.000000e-02  5.000000e-02 -2.500000e-02
      vertex   1.110223e-16  5.000000e-02 -2.500000e-02
    endloop
  endfacet
  facet normal -1.000000e+00  0.000000e+00 -0.000000e+00
    outer loop
      vertex   2.000000e-02 -7.165063e-02  1.250000e-02
      vertex   2.000000e-02 -6.250000e-02  2.165063e-02
      vertex   2.000000e-02 -7.500000e-02 -1.373476e-16
    endloop
  endfacet
  facet normal -1.000000e+00  0.000000e+00  0.000000e+00
    outer loop
      vertex   2.000000e-02 -7.500000e-02 -1.373476e-16
      vertex   2.000000e-02 -6.250000e-02  2.165063e-02
      vertex   2.000000e-02 -5.000000e-02  2.500000e-02
    endloop
  endfacet
  facet normal -1.000000e+00  0.000000e+00  0.000000e+00
    outer loop
      vertex   2.000000e-02 -5.000000e-02  2.500000e-02
      vertex   2.000000e-02  5.000000e-02  2.500000e-02
      vertex   2.000000e-02  5.000000e-02 -2.500000e-02
    endloop
  endfacet
  facet normal -1.000000e+00  0.000000e+00  0.000000e+00
    outer loop
      vertex   2.000000e-02  5.000000e-02 -2.500000e-02
      vertex   2.000000e-02  5.000000e-02  2.500000e-02
      vertex   2.000000e-02  6.250000e-02  2.165063e-02
    endloop
  endfacet
  facet normal -1.000000e+00  0.000000e+00  0.000000e+00
    outer loop
      vertex   2.000000e-02 -7.165063e-02 -1.250000e-02
      vertex   2.000000e-02 -7.500000e-02 -1.373476e-16
      vertex   2.000000e-02 -6.250000e-02 -2.165063e-02
    endloop
  endfacet
  facet normal -1.000000e+00  0.000000e+00  0.000000e+00
    outer loop
      vertex   2.000000e-02 -6.250000e-02 -2.165063e-02
      vertex   2.000000e-02 -7.500000e-02 -1.373476e-16
      vertex   2.000000e-02 -5.000000e-02  2.500000e-02
    endloop
  endfacet
  facet normal -1.000000e+00  0.000000e+00  0.000000e+00
    outer loop
      vertex   2.000000e-02 -6.250000e-02 -2.165063e-02
      vertex   2.000000e-02 -5.000000e-02  2.500000e-02
      vertex   2.000000e-02 -5.000000e-02 -2.500000e-02
    endloop
  endfacet
  facet normal -1.000000e+00  0.000000e+00  0.000000e+00
    outer loop
      vertex   2.000000e-02 -5.000000e-02 -2.500000e-02
      vertex   2.000000e-02 -5.000000e-02  2.500000e-02
      vertex   2.000000e-02  5.000000e-02 -2.500000e-02
    endloop
  endfacet
  facet normal -1.000000e+00 -0.000000e+00  0.000000e+00
    outer loop
      vertex   2.000000e-02  7.165063e-02 -1.250000e-02
      vertex   2.000000e-02  6.250000e-02 -2.165063e-02
      vertex   2.000000e-02  7.500000e-02 -1.710254e-16
    endloop
  endfacet
  facet normal -1.000000e+00  0.000000e+00  0.000000e+00
    outer loop
      vertex   2.000000e-02  7.500000e-02 -1.710254e-16
      vertex   2.000000e-02  6.250000e-02 -2.165063e-02
      vertex   2.000000e-02  5.000000e-02 -2.500000e-02
    endloop
  endfacet
  facet normal -1.000000e+00 -0.000000e+00  0.000000e+00
    outer loop
      vertex   2.000000e-02  7.500000e-02 -1.710254e-16
      vertex   2.000000e-02  5.000000e-02 -2.500000e-02
      vertex   2.000000e-02  7.165063e-02  1.250000e-02
    endloop
  endfacet
  facet normal -1.000000e+00 -0.000000e+00  0.000000e+00
    outer loop
      vertex   2.000000e-02  7.165063e-02  1.250000e-02
      vertex   2.000000e-02  5.000000e-02 -2.500000e-02
      vertex   2.000000e-02  6.250000e-02  2.165063e-02
    endloop
  endfacet
  facet normal -0.000000e+00  9.659258e-01  2.588191e-01
    outer loop
      vertex   6.250000e-02 -3.125000e-02  3.125000e-02
      vertex   1.250000e-01 -3.125000e-02  3.125000e-02
      vertex   6.250000e-02 -2.706329e-02  1.562500e-02
    endloop
  endfacet
  facet normal -0.000000e+00  9.659258e-01  2.588191e-01
    outer loop
      vertex   6.250000e-02 -2.706329e-02  1.562500e-02
      vertex   1.250000e-01 -3.125000e-02  3.125000e-02
      vertex   1.250000e-01 -2.706329e-02  1.562500e-02
    endloop
  endfacet
  facet normal -0.000000e+00  7.071068e-01  7.071068e-01
    outer loop
      vertex   6.250000e-02 -2.706329e-02  1.562500e-02
      vertex   1.250000e-01 -2.706329e-02  1.562500e-02
      vertex   6.250000e-02 -1.562500e-02  4.186706e-03
    endloop
  endfacet
  facet normal -0.000000e+00  7.071068e-01  7.071068e-01
    outer loop
      vertex   6.250000e-02 -1.562500e-02  4.186706e-03
      vertex   1.250000e-01 -2.706329e-02  1.562500e-02
      vertex   1.250000e-01 -1.562500e-02  4.186706e-03
    endloop
  endfacet
  facet normal -0.000000e+00  2.588190e-01  9.659258e-01
    outer loop
      vertex   6.250000e-02 -1.562500e-02  4.186706e-03
      vertex   1.250000e-01 -1.562500e-02  4.186706e-03
      vertex   6.250000e-02  2.024263e-16 -1.526557e-16
    endloop
  endfacet
  facet normal -2.873469e-17  2.588190e-01  9.659258e-01
    outer loop
      vertex   6.250000e-02  2.024263e-16 -1.526557e-16
      vertex   1.250000e-01 -1.562500e-02  4.186706e-03
      vertex   1.250000e-01  2.093652e-16 -1.526557e-16
    endloop
  endfacet
  facet normal  0.000000e+00  1.000000e+00 -0.000000e+00
    outer loop
      vertex   1.250000e-01 -3.125000e-02  3.125000e-02
      vertex   6.250000e-02 -3.125000e-02  3.125000e-02
      vertex   1.250000e-01 -3.125000e-02  6.250000e-02
    endloop
  endfacet
  facet normal  0.000000e+00  1.000000e+00  0.000000e+00
    outer loop
      vertex   1.250000e-01 -3.125000e-02  6.250000e-02
      vertex   6.250000e-02 -3.125000e-02  3.125000e-02
      vertex   6.250000e-02 -3.125000e-02  6.250000e-02
    endloop
  endfacet
endsolid vcg
