solid STL generated by MeshLab
  facet normal  0.000000e+00  9.980797e-01  6.194215e-02
    outer loop
      vertex   3.125000e-02  5.029212e-01 -6.938894e-18
      vertex   0.000000e+00  5.029212e-01 -6.938894e-18
      vertex   0.000000e+00  5.029174e-01  6.050617e-05
    endloop
  endfacet
  facet normal  0.000000e+00  9.995168e-01  3.108321e-02
    outer loop
      vertex   6.250000e-02  5.038911e-01 -3.125000e-02
      vertex   3.125000e-02  5.038911e-01 -3.125000e-02
      vertex   6.250000e-02  5.029174e-01  6.050617e-05
    endloop
  endfacet
  facet normal  6.003780e-05  9.995186e-01  3.102334e-02
    outer loop
      vertex   6.250000e-02  5.029174e-01  6.050617e-05
      vertex   3.125000e-02  5.038911e-01 -3.125000e-02
      vertex   3.125000e-02  5.029212e-01 -6.938894e-18
    endloop
  endfacet
  facet normal  0.000000e+00  9.980797e-01  6.194215e-02
    outer loop
      vertex   3.125000e-02  5.029212e-01 -6.938894e-18
      vertex   0.000000e+00  5.029174e-01  6.050617e-05
      vertex   6.250000e-02  5.029174e-01  6.050617e-05
    endloop
  endfacet
  facet normal  0.000000e+00  9.956538e-01  9.313165e-02
    outer loop
      vertex   6.250000e-02  5.029174e-01  6.050617e-05
      vertex   0.000000e+00  5.029174e-01  6.050617e-05
      vertex   0.000000e+00  5.000000e-01  3.125000e-02
    endloop
  endfacet
  facet normal  0.000000e+00  9.956538e-01  9.313165e-02
    outer loop
      vertex   6.250000e-02  5.029174e-01  6.050617e-05
      vertex   0.000000e+00  5.000000e-01  3.125000e-02
      vertex   6.250000e-02  5.000000e-01  3.125000e-02
    endloop
  endfacet
  facet normal  0.000000e+00 -0.000000e+00  1.000000e+00
    outer loop
      vertex   6.250000e-02  1.509209e-16  3.125000e-02
      vertex   6.250000e-02  5.000000e-01  3.125000e-02
      vertex   0.000000e+00  2.619432e-16  3.125000e-02
    endloop
  endfacet
  facet normal  0.000000e+00  0.000000e+00  1.000000e+00
    outer loop
      vertex   0.000000e+00  2.619432e-16  3.125000e-02
      vertex   6.250000e-02  5.000000e-01  3.125000e-02
      vertex   0.000000e+00  5.000000e-01  3.125000e-02
    endloop
  endfacet
  facet normal  0.000000e+00 -1.950904e-01  9.807853e-01
    outer loop
      vertex   6.250000e-02  1.987781e-16  3.125000e-02
      vertex   0.000000e+00  1.987781e-16  3.125000e-02
      vertex   0.000000e+00 -1.195886e-02  2.887123e-02
    endloop
  endfacet
  facet normal  0.000000e+00 -1.950904e-01  9.807853e-01
    outer loop
      vertex   6.250000e-02  1.987781e-16  3.125000e-02
      vertex   0.000000e+00 -1.195886e-02  2.887123e-02
      vertex   6.250000e-02 -1.195886e-02  2.887123e-02
    endloop
  endfacet
  facet normal  0.000000e+00 -5.555701e-01  8.314697e-01
    outer loop
      vertex   6.250000e-02 -1.195886e-02  2.887123e-02
      vertex   0.000000e+00 -1.195886e-02  2.887123e-02
      vertex   0.000000e+00 -2.209709e-02  2.209709e-02
    endloop
  endfacet
  facet normal  0.000000e+00 -5.555701e-01  8.314697e-01
    outer loop
      vertex   6.250000e-02 -1.195886e-02  2.887123e-02
      vertex   0.000000e+00 -2.209709e-02  2.209709e-02
      vertex   6.250000e-02 -2.209709e-02  2.209709e-02
    endloop
  endfacet
  facet normal  0.000000e+00 -8.314697e-01  5.555701e-01
    outer loop
      vertex   6.250000e-02 -2.209709e-02  2.209709e-02
      vertex   0.000000e+00 -2.209709e-02  2.209709e-02
      vertex   0.000000e+00 -2.887123e-02  1.195886e-02
    endloop
  endfacet
  facet normal  0.000000e+00 -8.314697e-01  5.555701e-01
    outer loop
      vertex   6.250000e-02 -2.209709e-02  2.209709e-02
      vertex   0.000000e+00 -2.887123e-02  1.195886e-02
      vertex   6.250000e-02 -2.887123e-02  1.195886e-02
    endloop
  endfacet
  facet normal  0.000000e+00 -9.807853e-01  1.950904e-01
    outer loop
      vertex   6.250000e-02 -2.887123e-02  1.195886e-02
      vertex   0.000000e+00 -2.887123e-02  1.195886e-02
      vertex   0.000000e+00 -3.125000e-02 -6.938894e-18
    endloop
  endfacet
  facet normal  0.000000e+00 -9.807853e-01  1.950904e-01
    outer loop
      vertex   6.250000e-02 -2.887123e-02  1.195886e-02
      vertex   0.000000e+00 -3.125000e-02 -6.938894e-18
      vertex   6.250000e-02 -3.125000e-02 -6.938894e-18
    endloop
  endfacet
  facet normal -0.000000e+00 -9.807853e-01 -1.950904e-01
    outer loop
      vertex   6.250000e-02 -3.125000e-02 -6.938894e-18
      vertex   0.000000e+00 -3.125000e-02 -6.938894e-18
      vertex   0.000000e+00 -2.887123e-02 -1.195886e-02
    endloop
  endfacet
  facet normal  0.000000e+00 -9.807853e-01 -1.950904e-01
    outer loop
      vertex   6.250000e-02 -3.125000e-02 -6.938894e-18
      vertex   0.000000e+00 -2.887123e-02 -1.195886e-02
      vertex   6.250000e-02 -2.887123e-02 -1.195886e-02
    endloop
  endfacet
  facet normal -0.000000e+00 -8.314697e-01 -5.555702e-01
    outer loop
      vertex   6.250000e-02 -2.887123e-02 -1.195886e-02
      vertex   0.000000e+00 -2.887123e-02 -1.195886e-02
      vertex   0.000000e+00 -2.209709e-02 -2.209709e-02
    endloop
  endfacet
  facet normal  0.000000e+00 -8.314697e-01 -5.555702e-01
    outer loop
      vertex   6.250000e-02 -2.887123e-02 -1.195886e-02
      vertex   0.000000e+00 -2.209709e-02 -2.209709e-02
      vertex   6.250000e-02 -2.209709e-02 -2.209709e-02
    endloop
  endfacet
  facet normal -0.000000e+00 -5.555704e-01 -8.314696e-01
    outer loop
      vertex   6.250000e-02 -2.209709e-02 -2.209709e-02
      vertex   0.000000e+00 -2.209709e-02 -2.209709e-02
      vertex   0.000000e+00 -1.195886e-02 -2.887124e-02
    endloop
  endfacet
  facet normal  0.000000e+00 -5.555704e-01 -8.314696e-01
    outer loop
      vertex   6.250000e-02 -2.209709e-02 -2.209709e-02
      vertex   0.000000e+00 -1.195886e-02 -2.887124e-02
      vertex   6.250000e-02 -1.195886e-02 -2.887124e-02
    endloop
  endfacet
  facet normal -0.000000e+00 -1.950902e-01 -9.807853e-01
    outer loop
      vertex   6.250000e-02 -1.195886e-02 -2.887124e-02
      vertex   0.000000e+00 -1.195886e-02 -2.887124e-02
      vertex   0.000000e+00  2.102591e-16 -3.125000e-02
    endloop
  endfacet
  facet normal  0.000000e+00 -1.950902e-01 -9.807853e-01
    outer loop
      vertex   6.250000e-02 -1.195886e-02 -2.887124e-02
      vertex   0.000000e+00  2.102591e-16 -3.125000e-02
      vertex   6.250000e-02  2.102591e-16 -3.125000e-02
    endloop
  endfacet
  facet normal  0.000000e+00  0.000000e+00 -1.000000e+00
    outer loop
      vertex   3.125000e-02  5.038911e-01 -3.125000e-02
      vertex   6.250000e-02  5.038911e-01 -3.125000e-02
      vertex   3.125000e-02  2.519456e-01 -3.125000e-02
    endloop
  endfacet
  facet normal  0.000000e+00  0.000000e+00 -1.000000e+00
    outer loop
      vertex   3.125000e-02  2.519456e-01 -3.125000e-02
      vertex   6.250000e-02  5.038911e-01 -3.125000e-02
      vertex   6.250000e-02  2.619432e-16 -3.125000e-02
    endloop
  endfacet
  facet normal -0.000000e+00 -0.000000e+00 -1.000000e+00
    outer loop
      vertex   3.125000e-02  2.519456e-01 -3.125000e-02
      vertex   6.250000e-02  2.619432e-16 -3.125000e-02
      vertex   0.000000e+00  2.519456e-01 -3.125000e-02
    endloop
  endfacet
  facet normal  0.000000e+00  0.000000e+00 -1.000000e+00
    outer loop
      vertex   0.000000e+00  2.519456e-01 -3.125000e-02
      vertex   6.250000e-02  2.619432e-16 -3.125000e-02
      vertex   0.000000e+00  2.619432e-16 -3.125000e-02
    endloop
  endfacet
  facet normal  1.000000e+00  0.000000e+00  0.000000e+00
    outer loop
      vertex   6.250000e-02 -2.209709e-02 -2.209709e-02
      vertex   6.250000e-02 -1.195886e-02 -2.887124e-02
      vertex   6.250000e-02  2.064321e-16 -3.125000e-02
    endloop
  endfacet
  facet normal  1.000000e+00  0.000000e+00  0.000000e+00
    outer loop
      vertex   6.250000e-02  5.038911e-01 -3.125000e-02
      vertex   6.250000e-02  5.029174e-01  6.050617e-05
      vertex   6.250000e-02  2.064321e-16 -3.125000e-02
    endloop
  endfacet
  facet normal  1.000000e+00  0.000000e+00  0.000000e+00
    outer loop
      vertex   6.250000e-02  2.064321e-16 -3.125000e-02
      vertex   6.250000e-02  5.029174e-01  6.050617e-05
      vertex   6.250000e-02  5.000000e-01  3.125000e-02
    endloop
  endfacet
  facet normal  1.000000e+00  0.000000e+00 -0.000000e+00
    outer loop
      vertex   6.250000e-02  2.064321e-16 -3.125000e-02
      vertex   6.250000e-02  5.000000e-01  3.125000e-02
      vertex   6.250000e-02  1.987781e-16  3.125000e-02
    endloop
  endfacet
  facet normal  1.000000e+00 -0.000000e+00  0.000000e+00
    outer loop
      vertex   6.250000e-02 -3.125000e-02 -6.938894e-18
      vertex   6.250000e-02 -2.887123e-02 -1.195886e-02
      vertex   6.250000e-02 -2.887123e-02  1.195886e-02
    endloop
  endfacet
  facet normal  1.000000e+00  0.000000e+00  0.000000e+00
    outer loop
      vertex   6.250000e-02 -2.887123e-02  1.195886e-02
      vertex   6.250000e-02 -2.887123e-02 -1.195886e-02
      vertex   6.250000e-02 -2.209709e-02 -2.209709e-02
    endloop
  endfacet
  facet normal  1.000000e+00 -0.000000e+00  0.000000e+00
    outer loop
      vertex   6.250000e-02 -2.887123e-02  1.195886e-02
      vertex   6.250000e-02 -2.209709e-02 -2.209709e-02
      vertex   6.250000e-02 -2.209709e-02  2.209709e-02
    endloop
  endfacet
  facet normal  1.000000e+00  0.000000e+00  0.000000e+00
    outer loop
      vertex   6.250000e-02 -2.209709e-02  2.209709e-02
      vertex   6.250000e-02 -2.209709e-02 -2.209709e-02
      vertex   6.250000e-02  2.064321e-16 -3.125000e-02
    endloop
  endfacet
  facet normal  1.000000e+00 -0.000000e+00  0.000000e+00
    outer loop
      vertex   6.250000e-02 -2.209709e-02  2.209709e-02
      vertex   6.250000e-02  2.064321e-16 -3.125000e-02
      vertex   6.250000e-02 -1.195886e-02  2.887123e-02
    endloop
  endfacet
  facet normal  1.000000e+00 -0.000000e+00  0.000000e+00
    outer loop
      vertex   6.250000e-02 -1.195886e-02  2.887123e-02
      vertex   6.250000e-02  2.064321e-16 -3.125000e-02
      vertex   6.250000e-02  1.987781e-16  3.125000e-02
    endloop
  endfacet
  facet normal -1.000000e+00  0.000000e+00  0.000000e+00
    outer loop
      vertex   0.000000e+00 -2.209709e-02  2.209709e-02
      vertex   0.000000e+00 -1.195886e-02  2.887123e-02
      vertex   0.000000e+00  1.509209e-16  3.125000e-02
    endloop
  endfacet
  facet normal -1.000000e+00  0.000000e+00 -0.000000e+00
    outer loop
      vertex   0.000000e+00  5.029174e-01  6.050617e-05
      vertex   0.000000e+00  5.029212e-01 -6.938894e-18
      vertex   0.000000e+00  2.519456e-01 -6.938894e-18
    endloop
  endfacet
  facet normal -1.000000e+00 -0.000000e+00  0.000000e+00
    outer loop
      vertex   0.000000e+00  5.029174e-01  6.050617e-05
      vertex   0.000000e+00  2.519456e-01 -6.938894e-18
      vertex   0.000000e+00  5.000000e-01  3.125000e-02
    endloop
  endfacet
  facet normal -1.000000e+00 -0.000000e+00  0.000000e+00
    outer loop
      vertex   0.000000e+00  5.000000e-01  3.125000e-02
      vertex   0.000000e+00  2.519456e-01 -6.938894e-18
      vertex   0.000000e+00  1.509209e-16  3.125000e-02
    endloop
  endfacet
  facet normal -1.000000e+00  0.000000e+00  0.000000e+00
    outer loop
      vertex   0.000000e+00  1.509209e-16  3.125000e-02
      vertex   0.000000e+00  2.519456e-01 -6.938894e-18
      vertex   0.000000e+00  2.519456e-01 -3.125000e-02
    endloop
  endfacet
  facet normal -1.000000e+00  0.000000e+00  0.000000e+00
    outer loop
      vertex   0.000000e+00  1.509209e-16  3.125000e-02
      vertex   0.000000e+00  2.519456e-01 -3.125000e-02
      vertex   0.000000e+00  2.064321e-16 -3.125000e-02
    endloop
  endfacet
  facet normal -1.000000e+00  0.000000e+00  0.000000e+00
    outer loop
      vertex   0.000000e+00 -3.125000e-02 -6.938894e-18
      vertex   0.000000e+00 -2.887123e-02  1.195886e-02
      vertex   0.000000e+00 -2.887123e-02 -1.195886e-02
    endloop
  endfacet
  facet normal -1.000000e+00  0.000000e+00  0.000000e+00
    outer loop
      vertex   0.000000e+00 -2.887123e-02 -1.195886e-02
      vertex   0.000000e+00 -2.887123e-02  1.195886e-02
      vertex   0.000000e+00 -2.209709e-02  2.209709e-02
    endloop
  endfacet
  facet normal -1.000000e+00  0.000000e+00  0.000000e+00
    outer loop
      vertex   0.000000e+00 -2.887123e-02 -1.195886e-02
      vertex   0.000000e+00 -2.209709e-02  2.209709e-02
      vertex   0.000000e+00 -2.209709e-02 -2.209709e-02
    endloop
  endfacet
  facet normal -1.000000e+00  0.000000e+00  0.000000e+00
    outer loop
      vertex   0.000000e+00 -2.209709e-02 -2.209709e-02
      vertex   0.000000e+00 -2.209709e-02  2.209709e-02
      vertex   0.000000e+00  1.509209e-16  3.125000e-02
    endloop
  endfacet
  facet normal -1.000000e+00  0.000000e+00  0.000000e+00
    outer loop
      vertex   0.000000e+00 -2.209709e-02 -2.209709e-02
      vertex   0.000000e+00  1.509209e-16  3.125000e-02
      vertex   0.000000e+00 -1.195886e-02 -2.887124e-02
    endloop
  endfacet
  facet normal -1.000000e+00  0.000000e+00  0.000000e+00
    outer loop
      vertex   0.000000e+00 -1.195886e-02 -2.887124e-02
      vertex   0.000000e+00  1.509209e-16  3.125000e-02
      vertex   0.000000e+00  2.064321e-16 -3.125000e-02
    endloop
  endfacet
  facet normal -0.000000e+00 -0.000000e+00 -1.000000e+00
    outer loop
      vertex   3.125000e-02  5.029212e-01 -6.938894e-18
      vertex   3.125000e-02  2.519456e-01 -6.938894e-18
      vertex   0.000000e+00  5.029212e-01 -6.938894e-18
    endloop
  endfacet
  facet normal  0.000000e+00  0.000000e+00 -1.000000e+00
    outer loop
      vertex   0.000000e+00  5.029212e-01 -6.938894e-18
      vertex   3.125000e-02  2.519456e-01 -6.938894e-18
      vertex   0.000000e+00  2.519456e-01 -6.938894e-18
    endloop
  endfacet
  facet normal  0.000000e+00  1.000000e+00  0.000000e+00
    outer loop
      vertex   3.125000e-02  2.519456e-01 -6.938894e-18
      vertex   3.125000e-02  2.519456e-01 -3.125000e-02
      vertex   0.000000e+00  2.519456e-01 -6.938894e-18
    endloop
  endfacet
  facet normal  0.000000e+00  1.000000e+00  0.000000e+00
    outer loop
      vertex   0.000000e+00  2.519456e-01 -6.938894e-18
      vertex   3.125000e-02  2.519456e-01 -3.125000e-02
      vertex   0.000000e+00  2.519456e-01 -3.125000e-02
    endloop
  endfacet
  facet normal -1.000000e+00  0.000000e+00  0.000000e+00
    outer loop
      vertex   3.125000e-02  2.519456e-01 -6.938894e-18
      vertex   3.125000e-02  5.029212e-01 -6.938894e-18
      vertex   3.125000e-02  2.519456e-01 -3.125000e-02
    endloop
  endfacet
  facet normal -1.000000e+00  0.000000e+00  0.000000e+00
    outer loop
      vertex   3.125000e-02  2.519456e-01 -3.125000e-02
      vertex   3.125000e-02  5.029212e-01 -6.938894e-18
      vertex   3.125000e-02  5.038911e-01 -3.125000e-02
    endloop
  endfacet
endsolid vcg
