solid STL generated by MeshLab
  facet normal  0.000000e+00 -1.000000e+00  0.000000e+00
    outer loop
      vertex   0.000000e+00 -2.380160e-01 -1.562500e-02
      vertex   0.000000e+00 -2.380160e-01  1.562500e-02
      vertex  -3.125000e-02 -2.380160e-01 -1.562500e-02
    endloop
  endfacet
  facet normal  0.000000e+00 -1.000000e+00  0.000000e+00
    outer loop
      vertex  -3.125000e-02 -2.380160e-01 -1.562500e-02
      vertex   0.000000e+00 -2.380160e-01  1.562500e-02
      vertex  -3.125000e-02 -2.380160e-01  1.562500e-02
    endloop
  endfacet
  facet normal -0.000000e+00 -0.000000e+00 -1.000000e+00
    outer loop
      vertex   0.000000e+00  1.655455e-09 -1.562500e-02
      vertex   0.000000e+00 -2.380160e-01 -1.562500e-02
      vertex  -3.125000e-02  1.655455e-09 -1.562500e-02
    endloop
  endfacet
  facet normal  0.000000e+00  0.000000e+00 -1.000000e+00
    outer loop
      vertex  -3.125000e-02  1.655455e-09 -1.562500e-02
      vertex   0.000000e+00 -2.380160e-01 -1.562500e-02
      vertex  -3.125000e-02 -2.380160e-01 -1.562500e-02
    endloop
  endfacet
  facet normal  0.000000e+00  1.950905e-01 -9.807853e-01
    outer loop
      vertex   0.000000e+00  1.655455e-09 -1.562500e-02
      vertex  -3.125000e-02  1.655455e-09 -1.562500e-02
      vertex  -3.125000e-02  5.979421e-03 -1.443562e-02
    endloop
  endfacet
  facet normal  0.000000e+00  1.950905e-01 -9.807853e-01
    outer loop
      vertex   0.000000e+00  1.655455e-09 -1.562500e-02
      vertex  -3.125000e-02  5.979421e-03 -1.443562e-02
      vertex   0.000000e+00  5.979421e-03 -1.443562e-02
    endloop
  endfacet
  facet normal  0.000000e+00  5.555687e-01 -8.314707e-01
    outer loop
      vertex   0.000000e+00  5.979421e-03 -1.443562e-02
      vertex  -3.125000e-02  5.979421e-03 -1.443562e-02
      vertex  -3.125000e-02  1.104856e-02 -1.104854e-02
    endloop
  endfacet
  facet normal  0.000000e+00  5.555687e-01 -8.314707e-01
    outer loop
      vertex   0.000000e+00  5.979421e-03 -1.443562e-02
      vertex  -3.125000e-02  1.104856e-02 -1.104854e-02
      vertex   0.000000e+00  1.104856e-02 -1.104854e-02
    endloop
  endfacet
  facet normal  0.000000e+00  8.314704e-01 -5.555691e-01
    outer loop
      vertex   0.000000e+00  1.104856e-02 -1.104854e-02
      vertex  -3.125000e-02  1.104856e-02 -1.104854e-02
      vertex  -3.125000e-02  1.443562e-02 -5.979429e-03
    endloop
  endfacet
  facet normal  0.000000e+00  8.314704e-01 -5.555691e-01
    outer loop
      vertex   0.000000e+00  1.104856e-02 -1.104854e-02
      vertex  -3.125000e-02  1.443562e-02 -5.979429e-03
      vertex   0.000000e+00  1.443562e-02 -5.979429e-03
    endloop
  endfacet
  facet normal  0.000000e+00  9.807862e-01 -1.950854e-01
    outer loop
      vertex   0.000000e+00  1.443562e-02 -5.979429e-03
      vertex  -3.125000e-02  1.443562e-02 -5.979429e-03
      vertex  -3.125000e-02  1.562497e-02 -1.457168e-16
    endloop
  endfacet
  facet normal  0.000000e+00  9.807862e-01 -1.950854e-01
    outer loop
      vertex   0.000000e+00  1.443562e-02 -5.979429e-03
      vertex  -3.125000e-02  1.562497e-02 -1.457168e-16
      vertex   0.000000e+00  1.562497e-02 -1.457168e-16
    endloop
  endfacet
  facet normal  0.000000e+00  9.807862e-01  1.950854e-01
    outer loop
      vertex   0.000000e+00  1.562497e-02 -1.457168e-16
      vertex  -3.125000e-02  1.562497e-02 -1.457168e-16
      vertex  -3.125000e-02  1.443562e-02  5.979428e-03
    endloop
  endfacet
  facet normal  0.000000e+00  9.807862e-01  1.950854e-01
    outer loop
      vertex   0.000000e+00  1.562497e-02 -1.457168e-16
      vertex  -3.125000e-02  1.443562e-02  5.979428e-03
      vertex   0.000000e+00  1.443562e-02  5.979428e-03
    endloop
  endfacet
  facet normal  0.000000e+00  8.314704e-01  5.555689e-01
    outer loop
      vertex   0.000000e+00  1.443562e-02  5.979428e-03
      vertex  -3.125000e-02  1.443562e-02  5.979428e-03
      vertex  -3.125000e-02  1.104856e-02  1.104854e-02
    endloop
  endfacet
  facet normal  0.000000e+00  8.314704e-01  5.555689e-01
    outer loop
      vertex   0.000000e+00  1.443562e-02  5.979428e-03
      vertex  -3.125000e-02  1.104856e-02  1.104854e-02
      vertex   0.000000e+00  1.104856e-02  1.104854e-02
    endloop
  endfacet
  facet normal  0.000000e+00  5.555684e-01  8.314708e-01
    outer loop
      vertex   0.000000e+00  1.104856e-02  1.104854e-02
      vertex  -3.125000e-02  1.104856e-02  1.104854e-02
      vertex  -3.125000e-02  5.979421e-03  1.443562e-02
    endloop
  endfacet
  facet normal  0.000000e+00  5.555684e-01  8.314708e-01
    outer loop
      vertex   0.000000e+00  1.104856e-02  1.104854e-02
      vertex  -3.125000e-02  5.979421e-03  1.443562e-02
      vertex   0.000000e+00  5.979421e-03  1.443562e-02
    endloop
  endfacet
  facet normal  0.000000e+00  1.950907e-01  9.807853e-01
    outer loop
      vertex   0.000000e+00  5.979421e-03  1.443562e-02
      vertex  -3.125000e-02  5.979421e-03  1.443562e-02
      vertex  -3.125000e-02  1.655455e-09  1.562500e-02
    endloop
  endfacet
  facet normal  0.000000e+00  1.950907e-01  9.807853e-01
    outer loop
      vertex   0.000000e+00  5.979421e-03  1.443562e-02
      vertex  -3.125000e-02  1.655455e-09  1.562500e-02
      vertex   0.000000e+00  1.655455e-09  1.562500e-02
    endloop
  endfacet
  facet normal  0.000000e+00 -0.000000e+00  1.000000e+00
    outer loop
      vertex   0.000000e+00 -2.380160e-01  1.562500e-02
      vertex   0.000000e+00  1.655455e-09  1.562500e-02
      vertex  -3.125000e-02 -2.380160e-01  1.562500e-02
    endloop
  endfacet
  facet normal  0.000000e+00  0.000000e+00  1.000000e+00
    outer loop
      vertex  -3.125000e-02 -2.380160e-01  1.562500e-02
      vertex   0.000000e+00  1.655455e-09  1.562500e-02
      vertex  -3.125000e-02  1.655455e-09  1.562500e-02
    endloop
  endfacet
  facet normal  1.000000e+00  0.000000e+00  0.000000e+00
    outer loop
      vertex   0.000000e+00  1.443562e-02 -5.979429e-03
      vertex   0.000000e+00  1.562497e-02 -1.457168e-16
      vertex   0.000000e+00  1.443562e-02  5.979428e-03
    endloop
  endfacet
  facet normal  1.000000e+00 -0.000000e+00  0.000000e+00
    outer loop
      vertex   0.000000e+00 -2.380160e-01  1.562500e-02
      vertex   0.000000e+00 -2.380160e-01 -1.562500e-02
      vertex   0.000000e+00  1.655455e-09  1.562500e-02
    endloop
  endfacet
  facet normal  1.000000e+00  0.000000e+00  0.000000e+00
    outer loop
      vertex   0.000000e+00  1.655455e-09  1.562500e-02
      vertex   0.000000e+00 -2.380160e-01 -1.562500e-02
      vertex   0.000000e+00  1.655455e-09 -1.562500e-02
    endloop
  endfacet
  facet normal  1.000000e+00  0.000000e+00  0.000000e+00
    outer loop
      vertex   0.000000e+00  1.655455e-09  1.562500e-02
      vertex   0.000000e+00  1.655455e-09 -1.562500e-02
      vertex   0.000000e+00  5.979421e-03  1.443562e-02
    endloop
  endfacet
  facet normal  1.000000e+00  0.000000e+00 -0.000000e+00
    outer loop
      vertex   0.000000e+00  5.979421e-03 -1.443562e-02
      vertex   0.000000e+00  1.104856e-02 -1.104854e-02
      vertex   0.000000e+00  1.655455e-09 -1.562500e-02
    endloop
  endfacet
  facet normal  1.000000e+00  0.000000e+00  0.000000e+00
    outer loop
      vertex   0.000000e+00  1.655455e-09 -1.562500e-02
      vertex   0.000000e+00  1.104856e-02 -1.104854e-02
      vertex   0.000000e+00  1.443562e-02 -5.979429e-03
    endloop
  endfacet
  facet normal  1.000000e+00  0.000000e+00 -0.000000e+00
    outer loop
      vertex   0.000000e+00  1.443562e-02 -5.979429e-03
      vertex   0.000000e+00  1.443562e-02  5.979428e-03
      vertex   0.000000e+00  1.655455e-09 -1.562500e-02
    endloop
  endfacet
  facet normal  1.000000e+00  0.000000e+00  0.000000e+00
    outer loop
      vertex   0.000000e+00  1.655455e-09 -1.562500e-02
      vertex   0.000000e+00  1.443562e-02  5.979428e-03
      vertex   0.000000e+00  1.104856e-02  1.104854e-02
    endloop
  endfacet
  facet normal  1.000000e+00  0.000000e+00  0.000000e+00
    outer loop
      vertex   0.000000e+00  1.655455e-09 -1.562500e-02
      vertex   0.000000e+00  1.104856e-02  1.104854e-02
      vertex   0.000000e+00  5.979421e-03  1.443562e-02
    endloop
  endfacet
  facet normal -1.000000e+00  0.000000e+00  0.000000e+00
    outer loop
      vertex  -3.125000e-02  1.655455e-09 -1.562500e-02
      vertex  -3.125000e-02 -2.380160e-01 -1.562500e-02
      vertex  -3.125000e-02 -2.380160e-01  1.562500e-02
    endloop
  endfacet
  facet normal -1.000000e+00 -0.000000e+00 -0.000000e+00
    outer loop
      vertex  -3.125000e-02  1.104856e-02  1.104854e-02
      vertex  -3.125000e-02  1.443562e-02  5.979428e-03
      vertex  -3.125000e-02  5.979421e-03  1.443562e-02
    endloop
  endfacet
  facet normal -1.000000e+00  0.000000e+00 -0.000000e+00
    outer loop
      vertex  -3.125000e-02  5.979421e-03  1.443562e-02
      vertex  -3.125000e-02  1.443562e-02  5.979428e-03
      vertex  -3.125000e-02  1.655455e-09 -1.562500e-02
    endloop
  endfacet
  facet normal -1.000000e+00 -0.000000e+00  0.000000e+00
    outer loop
      vertex  -3.125000e-02  5.979421e-03  1.443562e-02
      vertex  -3.125000e-02  1.655455e-09 -1.562500e-02
      vertex  -3.125000e-02  1.655455e-09  1.562500e-02
    endloop
  endfacet
  facet normal -1.000000e+00 -0.000000e+00 -0.000000e+00
    outer loop
      vertex  -3.125000e-02  1.655455e-09  1.562500e-02
      vertex  -3.125000e-02  1.655455e-09 -1.562500e-02
      vertex  -3.125000e-02 -2.380160e-01  1.562500e-02
    endloop
  endfacet
  facet normal -1.000000e+00 -0.000000e+00  0.000000e+00
    outer loop
      vertex  -3.125000e-02  1.104856e-02 -1.104854e-02
      vertex  -3.125000e-02  5.979421e-03 -1.443562e-02
      vertex  -3.125000e-02  1.443562e-02 -5.979429e-03
    endloop
  endfacet
  facet normal -1.000000e+00  0.000000e+00  0.000000e+00
    outer loop
      vertex  -3.125000e-02  1.443562e-02 -5.979429e-03
      vertex  -3.125000e-02  5.979421e-03 -1.443562e-02
      vertex  -3.125000e-02  1.655455e-09 -1.562500e-02
    endloop
  endfacet
  facet normal -1.000000e+00 -0.000000e+00  0.000000e+00
    outer loop
      vertex  -3.125000e-02  1.443562e-02 -5.979429e-03
      vertex  -3.125000e-02  1.655455e-09 -1.562500e-02
      vertex  -3.125000e-02  1.562497e-02 -1.457168e-16
    endloop
  endfacet
  facet normal -1.000000e+00 -0.000000e+00  0.000000e+00
    outer loop
      vertex  -3.125000e-02  1.562497e-02 -1.457168e-16
      vertex  -3.125000e-02  1.655455e-09 -1.562500e-02
      vertex  -3.125000e-02  1.443562e-02  5.979428e-03
    endloop
  endfacet
endsolid vcg
