solid STL generated by MeshLab
  facet normal -1.000000e+00 -0.000000e+00  0.000000e+00
    outer loop
      vertex  -6.250000e-02  5.038911e-01 -1.665335e-16
      vertex  -6.250000e-02  5.000000e-01 -6.250000e-02
      vertex  -6.250000e-02  1.318390e-16 -4.163336e-17
    endloop
  endfacet
  facet normal -1.000000e+00  0.000000e+00 -0.000000e+00
    outer loop
      vertex  -6.250000e-02  1.318390e-16 -4.163336e-17
      vertex  -6.250000e-02  5.000000e-01 -6.250000e-02
      vertex  -6.250000e-02 -5.000000e-01 -6.250000e-02
    endloop
  endfacet
  facet normal -1.000000e+00 -0.000000e+00  0.000000e+00
    outer loop
      vertex  -6.250000e-02  1.318390e-16 -4.163336e-17
      vertex  -6.250000e-02 -5.000000e-01 -6.250000e-02
      vertex  -6.250000e-02 -1.562500e-02  4.186706e-03
    endloop
  endfacet
  facet normal -1.000000e+00  0.000000e+00 -0.000000e+00
    outer loop
      vertex  -6.250000e-02 -5.000000e-01  6.250000e-02
      vertex  -6.250000e-02 -3.125000e-02  6.250000e-02
      vertex  -6.250000e-02 -5.038911e-01  2.428613e-16
    endloop
  endfacet
  facet normal -1.000000e+00  0.000000e+00  0.000000e+00
    outer loop
      vertex  -6.250000e-02 -5.038911e-01  2.428613e-16
      vertex  -6.250000e-02 -3.125000e-02  6.250000e-02
      vertex  -6.250000e-02 -3.125000e-02  3.125000e-02
    endloop
  endfacet
  facet normal -1.000000e+00  0.000000e+00  0.000000e+00
    outer loop
      vertex  -6.250000e-02 -5.038911e-01  2.428613e-16
      vertex  -6.250000e-02 -3.125000e-02  3.125000e-02
      vertex  -6.250000e-02 -5.000000e-01 -6.250000e-02
    endloop
  endfacet
  facet normal -1.000000e+00  0.000000e+00  0.000000e+00
    outer loop
      vertex  -6.250000e-02 -5.000000e-01 -6.250000e-02
      vertex  -6.250000e-02 -3.125000e-02  3.125000e-02
      vertex  -6.250000e-02 -2.706329e-02  1.562500e-02
    endloop
  endfacet
  facet normal -1.000000e+00  0.000000e+00  0.000000e+00
    outer loop
      vertex  -6.250000e-02 -5.000000e-01 -6.250000e-02
      vertex  -6.250000e-02 -2.706329e-02  1.562500e-02
      vertex  -6.250000e-02 -1.562500e-02  4.186706e-03
    endloop
  endfacet
  facet normal  0.000000e+00  0.000000e+00  1.000000e+00
    outer loop
      vertex   6.250000e-02  5.000000e-01  6.250000e-02
      vertex   0.000000e+00  5.000000e-01  6.250000e-02
      vertex   0.000000e+00 -3.125000e-02  6.250000e-02
    endloop
  endfacet
  facet normal -0.000000e+00  0.000000e+00  1.000000e+00
    outer loop
      vertex  -6.250000e-02 -3.125000e-02  6.250000e-02
      vertex  -6.250000e-02 -5.000000e-01  6.250000e-02
      vertex   0.000000e+00 -3.125000e-02  6.250000e-02
    endloop
  endfacet
  facet normal  0.000000e+00  0.000000e+00  1.000000e+00
    outer loop
      vertex   0.000000e+00 -3.125000e-02  6.250000e-02
      vertex  -6.250000e-02 -5.000000e-01  6.250000e-02
      vertex   6.250000e-02 -5.000000e-01  6.250000e-02
    endloop
  endfacet
  facet normal -0.000000e+00  0.000000e+00  1.000000e+00
    outer loop
      vertex   0.000000e+00 -3.125000e-02  6.250000e-02
      vertex   6.250000e-02 -5.000000e-01  6.250000e-02
      vertex   6.250000e-02  5.000000e-01  6.250000e-02
    endloop
  endfacet
  facet normal  0.000000e+00  9.980677e-01 -6.213746e-02
    outer loop
      vertex  -6.250000e-02  5.000000e-01 -6.250000e-02
      vertex  -6.250000e-02  5.038911e-01 -1.650511e-16
      vertex   6.250000e-02  5.000000e-01 -6.250000e-02
    endloop
  endfacet
  facet normal  0.000000e+00  9.980677e-01 -6.213746e-02
    outer loop
      vertex   6.250000e-02  5.000000e-01 -6.250000e-02
      vertex  -6.250000e-02  5.038911e-01 -1.650511e-16
      vertex   0.000000e+00  5.038911e-01 -4.163336e-17
    endloop
  endfacet
  facet normal  0.000000e+00  9.980677e-01 -6.213746e-02
    outer loop
      vertex   6.250000e-02  5.000000e-01 -6.250000e-02
      vertex   0.000000e+00  5.038911e-01 -4.163336e-17
      vertex   6.250000e-02  5.038911e-01 -1.650511e-16
    endloop
  endfacet
  facet normal  1.227018e-16  9.980677e-01  6.213746e-02
    outer loop
      vertex   6.250000e-02  5.038911e-01 -1.650511e-16
      vertex   0.000000e+00  5.038911e-01 -4.163336e-17
      vertex   0.000000e+00  5.000000e-01  6.250000e-02
    endloop
  endfacet
  facet normal  0.000000e+00  9.980677e-01  6.213746e-02
    outer loop
      vertex   6.250000e-02  5.038911e-01 -1.650511e-16
      vertex   0.000000e+00  5.000000e-01  6.250000e-02
      vertex   6.250000e-02  5.000000e-01  6.250000e-02
    endloop
  endfacet
  facet normal  1.000000e+00  0.000000e+00  0.000000e+00
    outer loop
      vertex   6.250000e-02  1.250000e-02 -2.165063e-02
      vertex   6.250000e-02  1.318390e-16 -2.500000e-02
      vertex   6.250000e-02  5.000000e-01 -6.250000e-02
    endloop
  endfacet
  facet normal  1.000000e+00  0.000000e+00 -0.000000e+00
    outer loop
      vertex   6.250000e-02 -1.250000e-02  2.165063e-02
      vertex   6.250000e-02  1.318390e-16  2.500000e-02
      vertex   6.250000e-02 -5.000000e-01  6.250000e-02
    endloop
  endfacet
  facet normal  1.000000e+00 -0.000000e+00  0.000000e+00
    outer loop
      vertex   6.250000e-02 -5.000000e-01  6.250000e-02
      vertex   6.250000e-02  1.318390e-16  2.500000e-02
      vertex   6.250000e-02  5.000000e-01  6.250000e-02
    endloop
  endfacet
  facet normal  1.000000e+00  0.000000e+00  0.000000e+00
    outer loop
      vertex   6.250000e-02  5.000000e-01 -6.250000e-02
      vertex   6.250000e-02  1.318390e-16 -2.500000e-02
      vertex   6.250000e-02 -5.000000e-01 -6.250000e-02
    endloop
  endfacet
  facet normal  1.000000e+00  0.000000e+00  0.000000e+00
    outer loop
      vertex   6.250000e-02  1.318390e-16 -2.500000e-02
      vertex   6.250000e-02 -1.250000e-02 -2.165063e-02
      vertex   6.250000e-02 -5.000000e-01 -6.250000e-02
    endloop
  endfacet
  facet normal  1.000000e+00  0.000000e+00  0.000000e+00
    outer loop
      vertex   6.250000e-02 -5.000000e-01 -6.250000e-02
      vertex   6.250000e-02 -1.250000e-02 -2.165063e-02
      vertex   6.250000e-02 -2.165063e-02 -1.250000e-02
    endloop
  endfacet
  facet normal  1.000000e+00  0.000000e+00 -0.000000e+00
    outer loop
      vertex   6.250000e-02 -5.000000e-01 -6.250000e-02
      vertex   6.250000e-02 -2.165063e-02 -1.250000e-02
      vertex   6.250000e-02 -5.038911e-01  2.428613e-16
    endloop
  endfacet
  facet normal  1.000000e+00  0.000000e+00  0.000000e+00
    outer loop
      vertex   6.250000e-02 -5.038911e-01  2.428613e-16
      vertex   6.250000e-02 -2.165063e-02 -1.250000e-02
      vertex   6.250000e-02 -2.500000e-02 -4.163336e-17
    endloop
  endfacet
  facet normal  1.000000e+00 -0.000000e+00  0.000000e+00
    outer loop
      vertex   6.250000e-02 -5.038911e-01  2.428613e-16
      vertex   6.250000e-02 -2.500000e-02 -4.163336e-17
      vertex   6.250000e-02 -5.000000e-01  6.250000e-02
    endloop
  endfacet
  facet normal  1.000000e+00  0.000000e+00  0.000000e+00
    outer loop
      vertex   6.250000e-02 -5.000000e-01  6.250000e-02
      vertex   6.250000e-02 -2.500000e-02 -4.163336e-17
      vertex   6.250000e-02 -2.165063e-02  1.250000e-02
    endloop
  endfacet
  facet normal  1.000000e+00  0.000000e+00  0.000000e+00
    outer loop
      vertex   6.250000e-02 -5.000000e-01  6.250000e-02
      vertex   6.250000e-02 -2.165063e-02  1.250000e-02
      vertex   6.250000e-02 -1.250000e-02  2.165063e-02
    endloop
  endfacet
  facet normal  1.000000e+00 -0.000000e+00  0.000000e+00
    outer loop
      vertex   6.250000e-02  1.318390e-16  2.500000e-02
      vertex   6.250000e-02  1.250000e-02  2.165063e-02
      vertex   6.250000e-02  5.000000e-01  6.250000e-02
    endloop
  endfacet
  facet normal  1.000000e+00  0.000000e+00  0.000000e+00
    outer loop
      vertex   6.250000e-02  5.000000e-01  6.250000e-02
      vertex   6.250000e-02  1.250000e-02  2.165063e-02
      vertex   6.250000e-02  2.165063e-02  1.250000e-02
    endloop
  endfacet
  facet normal  1.000000e+00  0.000000e+00  0.000000e+00
    outer loop
      vertex   6.250000e-02  5.000000e-01  6.250000e-02
      vertex   6.250000e-02  2.165063e-02  1.250000e-02
      vertex   6.250000e-02  5.038911e-01 -1.665335e-16
    endloop
  endfacet
  facet normal  1.000000e+00  0.000000e+00  0.000000e+00
    outer loop
      vertex   6.250000e-02  5.038911e-01 -1.665335e-16
      vertex   6.250000e-02  2.165063e-02  1.250000e-02
      vertex   6.250000e-02  2.500000e-02 -2.775558e-17
    endloop
  endfacet
  facet normal  1.000000e+00  0.000000e+00  0.000000e+00
    outer loop
      vertex   6.250000e-02  5.038911e-01 -1.665335e-16
      vertex   6.250000e-02  2.500000e-02 -2.775558e-17
      vertex   6.250000e-02  5.000000e-01 -6.250000e-02
    endloop
  endfacet
  facet normal  1.000000e+00  0.000000e+00  0.000000e+00
    outer loop
      vertex   6.250000e-02  5.000000e-01 -6.250000e-02
      vertex   6.250000e-02  2.500000e-02 -2.775558e-17
      vertex   6.250000e-02  2.165063e-02 -1.250000e-02
    endloop
  endfacet
  facet normal  1.000000e+00  0.000000e+00  0.000000e+00
    outer loop
      vertex   6.250000e-02  5.000000e-01 -6.250000e-02
      vertex   6.250000e-02  2.165063e-02 -1.250000e-02
      vertex   6.250000e-02  1.250000e-02 -2.165063e-02
    endloop
  endfacet
  facet normal  0.000000e+00  0.000000e+00 -1.000000e+00
    outer loop
      vertex  -6.250000e-02 -5.000000e-01 -6.250000e-02
      vertex  -6.250000e-02  5.000000e-01 -6.250000e-02
      vertex   6.250000e-02 -5.000000e-01 -6.250000e-02
    endloop
  endfacet
  facet normal  0.000000e+00  0.000000e+00 -1.000000e+00
    outer loop
      vertex   6.250000e-02 -5.000000e-01 -6.250000e-02
      vertex  -6.250000e-02  5.000000e-01 -6.250000e-02
      vertex   6.250000e-02  5.000000e-01 -6.250000e-02
    endloop
  endfacet
  facet normal  0.000000e+00 -9.980677e-01 -6.213746e-02
    outer loop
      vertex  -6.250000e-02 -5.000000e-01 -6.250000e-02
      vertex   6.250000e-02 -5.000000e-01 -6.250000e-02
      vertex   6.250000e-02 -5.038911e-01  2.438481e-16
    endloop
  endfacet
  facet normal  0.000000e+00 -9.980677e-01 -6.213746e-02
    outer loop
      vertex  -6.250000e-02 -5.000000e-01 -6.250000e-02
      vertex   6.250000e-02 -5.038911e-01  2.438481e-16
      vertex  -6.250000e-02 -5.038911e-01  2.438481e-16
    endloop
  endfacet
  facet normal  0.000000e+00 -9.980677e-01  6.213746e-02
    outer loop
      vertex  -6.250000e-02 -5.038911e-01  2.438481e-16
      vertex   6.250000e-02 -5.038911e-01  2.438481e-16
      vertex   6.250000e-02 -5.000000e-01  6.250000e-02
    endloop
  endfacet
  facet normal  0.000000e+00 -9.980677e-01  6.213746e-02
    outer loop
      vertex  -6.250000e-02 -5.038911e-01  2.438481e-16
      vertex   6.250000e-02 -5.000000e-01  6.250000e-02
      vertex  -6.250000e-02 -5.000000e-01  6.250000e-02
    endloop
  endfacet
  facet normal -1.000000e+00  0.000000e+00  0.000000e+00
    outer loop
      vertex   0.000000e+00  1.318390e-16 -4.163336e-17
      vertex   0.000000e+00 -1.562500e-02  4.186706e-03
      vertex   0.000000e+00 -2.706329e-02  1.562500e-02
    endloop
  endfacet
  facet normal -1.000000e+00 -0.000000e+00 -0.000000e+00
    outer loop
      vertex   0.000000e+00  5.000000e-01  6.250000e-02
      vertex   0.000000e+00  5.038911e-01 -4.163336e-17
      vertex   0.000000e+00 -3.125000e-02  6.250000e-02
    endloop
  endfacet
  facet normal -1.000000e+00  0.000000e+00  0.000000e+00
    outer loop
      vertex   0.000000e+00 -3.125000e-02  6.250000e-02
      vertex   0.000000e+00  5.038911e-01 -4.163336e-17
      vertex   0.000000e+00  1.318390e-16 -4.163336e-17
    endloop
  endfacet
  facet normal -1.000000e+00  0.000000e+00  0.000000e+00
    outer loop
      vertex   0.000000e+00 -3.125000e-02  6.250000e-02
      vertex   0.000000e+00  1.318390e-16 -4.163336e-17
      vertex   0.000000e+00 -3.125000e-02  3.125000e-02
    endloop
  endfacet
  facet normal -1.000000e+00  0.000000e+00  0.000000e+00
    outer loop
      vertex   0.000000e+00 -3.125000e-02  3.125000e-02
      vertex   0.000000e+00  1.318390e-16 -4.163336e-17
      vertex   0.000000e+00 -2.706329e-02  1.562500e-02
    endloop
  endfacet
  facet normal  0.000000e+00  0.000000e+00  1.000000e+00
    outer loop
      vertex   0.000000e+00  5.038911e-01 -4.163336e-17
      vertex  -6.250000e-02  5.038911e-01 -4.163336e-17
      vertex   0.000000e+00  1.318390e-16 -4.163336e-17
    endloop
  endfacet
  facet normal  0.000000e+00  0.000000e+00  1.000000e+00
    outer loop
      vertex   0.000000e+00  1.318390e-16 -4.163336e-17
      vertex  -6.250000e-02  5.038911e-01 -4.163336e-17
      vertex  -6.250000e-02  1.318390e-16 -4.163336e-17
    endloop
  endfacet
  facet normal  0.000000e+00 -9.659258e-01  2.588191e-01
    outer loop
      vertex   6.250000e-02 -2.500000e-02 -4.163336e-17
      vertex   8.250000e-02 -2.165063e-02  1.250000e-02
      vertex   6.250000e-02 -2.165063e-02  1.250000e-02
    endloop
  endfacet
  facet normal  0.000000e+00 -7.071068e-01  7.071068e-01
    outer loop
      vertex   6.250000e-02 -2.165063e-02  1.250000e-02
      vertex   8.250000e-02 -2.165063e-02  1.250000e-02
      vertex   8.250000e-02 -1.250000e-02  2.165063e-02
    endloop
  endfacet
  facet normal  0.000000e+00 -7.071068e-01  7.071068e-01
    outer loop
      vertex   6.250000e-02 -2.165063e-02  1.250000e-02
      vertex   8.250000e-02 -1.250000e-02  2.165063e-02
      vertex   6.250000e-02 -1.250000e-02  2.165063e-02
    endloop
  endfacet
  facet normal  0.000000e+00 -2.588191e-01  9.659258e-01
    outer loop
      vertex   6.250000e-02 -1.250000e-02  2.165063e-02
      vertex   8.250000e-02 -1.250000e-02  2.165063e-02
      vertex   8.250000e-02  1.339164e-16  2.500000e-02
    endloop
  endfacet
  facet normal  0.000000e+00 -2.588191e-01  9.659258e-01
    outer loop
      vertex   6.250000e-02 -1.250000e-02  2.165063e-02
      vertex   8.250000e-02  1.339164e-16  2.500000e-02
      vertex   6.250000e-02  1.304470e-16  2.500000e-02
    endloop
  endfacet
  facet normal -4.489794e-17  2.588191e-01  9.659258e-01
    outer loop
      vertex   6.250000e-02  1.304470e-16  2.500000e-02
      vertex   8.250000e-02  1.339164e-16  2.500000e-02
      vertex   8.250000e-02  1.250000e-02  2.165063e-02
    endloop
  endfacet
  facet normal  0.000000e+00  2.588191e-01  9.659258e-01
    outer loop
      vertex   6.250000e-02  1.304470e-16  2.500000e-02
      vertex   8.250000e-02  1.250000e-02  2.165063e-02
      vertex   6.250000e-02  1.250000e-02  2.165063e-02
    endloop
  endfacet
  facet normal -0.000000e+00  7.071068e-01  7.071068e-01
    outer loop
      vertex   6.250000e-02  1.250000e-02  2.165063e-02
      vertex   8.250000e-02  1.250000e-02  2.165063e-02
      vertex   8.250000e-02  2.165063e-02  1.250000e-02
    endloop
  endfacet
  facet normal  0.000000e+00  7.071068e-01  7.071068e-01
    outer loop
      vertex   6.250000e-02  1.250000e-02  2.165063e-02
      vertex   8.250000e-02  2.165063e-02  1.250000e-02
      vertex   6.250000e-02  2.165063e-02  1.250000e-02
    endloop
  endfacet
  facet normal -0.000000e+00  9.659258e-01  2.588191e-01
    outer loop
      vertex   6.250000e-02  2.165063e-02  1.250000e-02
      vertex   8.250000e-02  2.165063e-02  1.250000e-02
      vertex   8.250000e-02  2.500000e-02 -2.746952e-17
    endloop
  endfacet
  facet normal  0.000000e+00  9.659258e-01  2.588191e-01
    outer loop
      vertex   6.250000e-02  2.165063e-02  1.250000e-02
      vertex   8.250000e-02  2.500000e-02 -2.746952e-17
      vertex   6.250000e-02  2.500000e-02 -2.746952e-17
    endloop
  endfacet
  facet normal  0.000000e+00  9.659258e-01 -2.588191e-01
    outer loop
      vertex   6.250000e-02  2.500000e-02 -2.746952e-17
      vertex   8.250000e-02  2.500000e-02 -2.746952e-17
      vertex   8.250000e-02  2.165063e-02 -1.250000e-02
    endloop
  endfacet
  facet normal  0.000000e+00  9.659258e-01 -2.588191e-01
    outer loop
      vertex   6.250000e-02  2.500000e-02 -2.746952e-17
      vertex   8.250000e-02  2.165063e-02 -1.250000e-02
      vertex   6.250000e-02  2.165063e-02 -1.250000e-02
    endloop
  endfacet
  facet normal  0.000000e+00  7.071068e-01 -7.071068e-01
    outer loop
      vertex   6.250000e-02  2.165063e-02 -1.250000e-02
      vertex   8.250000e-02  2.165063e-02 -1.250000e-02
      vertex   8.250000e-02  1.250000e-02 -2.165063e-02
    endloop
  endfacet
  facet normal  0.000000e+00  7.071068e-01 -7.071068e-01
    outer loop
      vertex   6.250000e-02  2.165063e-02 -1.250000e-02
      vertex   8.250000e-02  1.250000e-02 -2.165063e-02
      vertex   6.250000e-02  1.250000e-02 -2.165063e-02
    endloop
  endfacet
  facet normal  0.000000e+00  2.588191e-01 -9.659258e-01
    outer loop
      vertex   6.250000e-02  1.250000e-02 -2.165063e-02
      vertex   8.250000e-02  1.250000e-02 -2.165063e-02
      vertex   8.250000e-02  1.677952e-16 -2.500000e-02
    endloop
  endfacet
  facet normal  0.000000e+00  2.588191e-01 -9.659258e-01
    outer loop
      vertex   6.250000e-02  1.250000e-02 -2.165063e-02
      vertex   8.250000e-02  1.677952e-16 -2.500000e-02
      vertex   6.250000e-02  1.643258e-16 -2.500000e-02
    endloop
  endfacet
  facet normal  4.489794e-17 -2.588191e-01 -9.659258e-01
    outer loop
      vertex   6.250000e-02  1.643258e-16 -2.500000e-02
      vertex   8.250000e-02  1.677952e-16 -2.500000e-02
      vertex   8.250000e-02 -1.250000e-02 -2.165063e-02
    endloop
  endfacet
  facet normal  0.000000e+00 -2.588191e-01 -9.659258e-01
    outer loop
      vertex   6.250000e-02  1.643258e-16 -2.500000e-02
      vertex   8.250000e-02 -1.250000e-02 -2.165063e-02
      vertex   6.250000e-02 -1.250000e-02 -2.165063e-02
    endloop
  endfacet
  facet normal  0.000000e+00 -7.071068e-01 -7.071068e-01
    outer loop
      vertex   6.250000e-02 -1.250000e-02 -2.165063e-02
      vertex   8.250000e-02 -1.250000e-02 -2.165063e-02
      vertex   8.250000e-02 -2.165063e-02 -1.250000e-02
    endloop
  endfacet
  facet normal  0.000000e+00 -7.071068e-01 -7.071068e-01
    outer loop
      vertex   6.250000e-02 -1.250000e-02 -2.165063e-02
      vertex   8.250000e-02 -2.165063e-02 -1.250000e-02
      vertex   6.250000e-02 -2.165063e-02 -1.250000e-02
    endloop
  endfacet
  facet normal  0.000000e+00 -9.659258e-01 -2.588191e-01
    outer loop
      vertex   6.250000e-02 -2.165063e-02 -1.250000e-02
      vertex   8.250000e-02 -2.165063e-02 -1.250000e-02
      vertex   8.250000e-02 -2.500000e-02 -4.163336e-17
    endloop
  endfacet
  facet normal  0.000000e+00 -9.659258e-01 -2.588191e-01
    outer loop
      vertex   6.250000e-02 -2.165063e-02 -1.250000e-02
      vertex   8.250000e-02 -2.500000e-02 -4.163336e-17
      vertex   6.250000e-02 -2.500000e-02 -4.163336e-17
    endloop
  endfacet
  facet normal  0.000000e+00 -9.659258e-01  2.588191e-01
    outer loop
      vertex   6.250000e-02 -2.500000e-02 -4.163336e-17
      vertex   8.250000e-02 -2.500000e-02 -4.163336e-17
      vertex   8.250000e-02 -2.165063e-02  1.250000e-02
    endloop
  endfacet
  facet normal  1.000000e+00  0.000000e+00 -0.000000e+00
    outer loop
      vertex   8.250000e-02  1.250000e-02 -2.165063e-02
      vertex   8.250000e-02  2.165063e-02 -1.250000e-02
      vertex   8.250000e-02  1.409983e-16 -4.163336e-17
    endloop
  endfacet
  facet normal  1.000000e+00 -0.000000e+00  0.000000e+00
    outer loop
      vertex   8.250000e-02  1.409983e-16 -4.163336e-17
      vertex   8.250000e-02  2.165063e-02 -1.250000e-02
      vertex   8.250000e-02  2.500000e-02 -3.857175e-17
    endloop
  endfacet
  facet normal  1.000000e+00  0.000000e+00  0.000000e+00
    outer loop
      vertex   8.250000e-02  1.409983e-16 -4.163336e-17
      vertex   8.250000e-02  2.500000e-02 -3.857175e-17
      vertex   8.250000e-02  2.165063e-02  1.250000e-02
    endloop
  endfacet
  facet normal  1.000000e+00 -0.000000e+00  0.000000e+00
    outer loop
      vertex   8.250000e-02 -2.165063e-02 -1.250000e-02
      vertex   8.250000e-02 -1.250000e-02 -2.165063e-02
      vertex   8.250000e-02  1.409983e-16 -4.163336e-17
    endloop
  endfacet
  facet normal  1.000000e+00  0.000000e+00  0.000000e+00
    outer loop
      vertex   8.250000e-02  1.409983e-16 -4.163336e-17
      vertex   8.250000e-02 -1.250000e-02 -2.165063e-02
      vertex   8.250000e-02  1.677952e-16 -2.500000e-02
    endloop
  endfacet
  facet normal  1.000000e+00  0.000000e+00  0.000000e+00
    outer loop
      vertex   8.250000e-02  1.409983e-16 -4.163336e-17
      vertex   8.250000e-02  1.677952e-16 -2.500000e-02
      vertex   8.250000e-02  1.250000e-02 -2.165063e-02
    endloop
  endfacet
  facet normal  1.000000e+00  0.000000e+00  0.000000e+00
    outer loop
      vertex   8.250000e-02 -1.250000e-02  2.165063e-02
      vertex   8.250000e-02 -2.165063e-02  1.250000e-02
      vertex   8.250000e-02  1.409983e-16 -4.163336e-17
    endloop
  endfacet
  facet normal  1.000000e+00  0.000000e+00  0.000000e+00
    outer loop
      vertex   8.250000e-02  1.409983e-16 -4.163336e-17
      vertex   8.250000e-02 -2.165063e-02  1.250000e-02
      vertex   8.250000e-02 -2.500000e-02 -4.163336e-17
    endloop
  endfacet
  facet normal  1.000000e+00  0.000000e+00  0.000000e+00
    outer loop
      vertex   8.250000e-02  1.409983e-16 -4.163336e-17
      vertex   8.250000e-02 -2.500000e-02 -4.163336e-17
      vertex   8.250000e-02 -2.165063e-02 -1.250000e-02
    endloop
  endfacet
  facet normal  1.000000e+00  0.000000e+00  0.000000e+00
    outer loop
      vertex   8.250000e-02  2.165063e-02  1.250000e-02
      vertex   8.250000e-02  1.250000e-02  2.165063e-02
      vertex   8.250000e-02  1.409983e-16 -4.163336e-17
    endloop
  endfacet
  facet normal  1.000000e+00  0.000000e+00 -0.000000e+00
    outer loop
      vertex   8.250000e-02  1.409983e-16 -4.163336e-17
      vertex   8.250000e-02  1.250000e-02  2.165063e-02
      vertex   8.250000e-02  1.339164e-16  2.500000e-02
    endloop
  endfacet
  facet normal  1.000000e+00  0.000000e+00  0.000000e+00
    outer loop
      vertex   8.250000e-02  1.409983e-16 -4.163336e-17
      vertex   8.250000e-02  1.339164e-16  2.500000e-02
      vertex   8.250000e-02 -1.250000e-02  2.165063e-02
    endloop
  endfacet
  facet normal -2.873469e-17  2.588190e-01  9.659258e-01
    outer loop
      vertex   0.000000e+00  1.445184e-16 -4.163336e-17
      vertex  -6.250000e-02  1.375795e-16 -4.163336e-17
      vertex   0.000000e+00 -1.562500e-02  4.186706e-03
    endloop
  endfacet
  facet normal  0.000000e+00  2.588190e-01  9.659258e-01
    outer loop
      vertex   0.000000e+00 -1.562500e-02  4.186706e-03
      vertex  -6.250000e-02  1.375795e-16 -4.163336e-17
      vertex  -6.250000e-02 -1.562500e-02  4.186706e-03
    endloop
  endfacet
  facet normal  0.000000e+00  7.071068e-01  7.071068e-01
    outer loop
      vertex   0.000000e+00 -1.562500e-02  4.186706e-03
      vertex  -6.250000e-02 -1.562500e-02  4.186706e-03
      vertex   0.000000e+00 -2.706329e-02  1.562500e-02
    endloop
  endfacet
  facet normal  0.000000e+00  7.071068e-01  7.071068e-01
    outer loop
      vertex   0.000000e+00 -2.706329e-02  1.562500e-02
      vertex  -6.250000e-02 -1.562500e-02  4.186706e-03
      vertex  -6.250000e-02 -2.706329e-02  1.562500e-02
    endloop
  endfacet
  facet normal  0.000000e+00  9.659258e-01  2.588191e-01
    outer loop
      vertex   0.000000e+00 -2.706329e-02  1.562500e-02
      vertex  -6.250000e-02 -2.706329e-02  1.562500e-02
      vertex   0.000000e+00 -3.125000e-02  3.125000e-02
    endloop
  endfacet
  facet normal  0.000000e+00  9.659258e-01  2.588191e-01
    outer loop
      vertex   0.000000e+00 -3.125000e-02  3.125000e-02
      vertex  -6.250000e-02 -2.706329e-02  1.562500e-02
      vertex  -6.250000e-02 -3.125000e-02  3.125000e-02
    endloop
  endfacet
  facet normal  0.000000e+00  1.000000e+00  0.000000e+00
    outer loop
      vertex  -6.250000e-02 -3.125000e-02  3.125000e-02
      vertex  -6.250000e-02 -3.125000e-02  6.250000e-02
      vertex   0.000000e+00 -3.125000e-02  3.125000e-02
    endloop
  endfacet
  facet normal  0.000000e+00  1.000000e+00 -0.000000e+00
    outer loop
      vertex   0.000000e+00 -3.125000e-02  3.125000e-02
      vertex  -6.250000e-02 -3.125000e-02  6.250000e-02
      vertex   0.000000e+00 -3.125000e-02  6.250000e-02
    endloop
  endfacet
endsolid vcg
