# File generated by ImageToStl.com - Free Image and 3D model conversion tools

o obj1
v 0.125 -0.5 -0.0625
v 0.125 0.5 -0.0625
v 0.125 0 -0
v 0.125 0.5038911 -0
v 0.125 -0.03125 0.0625
v 0.125 -0.5 0.0625
v 0.125 -0.03125 0.03125
v 0.125 -0.5038911 0
v 0.125 -0.02706329 0.015625
v 0.125 -0.015625 0.00418671
v 0 0.0625 -0.02165063
v 0 0.07165063 -0.0125
v 0 0.5 -0.0625
v 0 -0.07165063 -0.0125
v 0 -0.5 -0.0625
v 0 -0.075 -0
v 0 -0.5038911 0
v 0 -0.07165063 0.0125
v 0 -0.5 0.0625
v 0 0.5038911 -0
v 0 0.075 -0
v 0 0.5 0.0625
v 0 0.07165063 0.0125
v 0 0.0625 0.02165063
v 0 -0.0625 -0.02165063
v 0 -0.05 -0.025
v 0 0.05 -0.025
v 0 0.05 0.025
v 0 -0.05 0.025
v 0 -0.0625 0.02165063
v 0.0625 0.5 0.0625
v 0.0625 -0.03125 0.0625
v 0.0625 0.5038911 -0
v 0.125 0.5038911 -0
v 0 0.5038911 -0
v 0.125 -0.5038911 0
v 0 -0.5038911 0
v 0.0625 0 -0
v 0.0625 -0.02706329 0.015625
v 0.0625 -0.015625 0.00418671
v 0.0625 -0.03125 0.03125
v 0.02 0.05 0.025
v 0.02 0.0625 0.02165063
v 0.02 0.07165063 0.0125
v 0.02 0.075 -0
v 0 0.075 -0
v 0.02 0.07165063 -0.0125
v 0.02 0.0625 -0.02165063
v 0.02 0.05 -0.025
v 0.02 -0.05 0.025
v 0.02 -0.05 -0.025
v 0.02 -0.0625 -0.02165063
v 0.02 -0.07165063 -0.0125
v 0.02 -0.075 -0
v 0 -0.075 -0
v 0.02 -0.07165063 0.0125
v 0.02 -0.0625 0.02165063
v 0.0625 0 -0
v 0.125 0 -0
vn 1 0 0
vn -1 0 0
vn 0 0 1
vn 0 0 -1
vn -0 0.99807 -0.06214
vn -0 0.99807 0.06214
vn 0 0.99807 -0.06214
vn 0 0.99807 -0.06214
vn 0 -0.99807 -0.06214
vn 0 -0.99807 0.06214
vn -0 -0.25882 -0.96593
vn -0 -0.70711 -0.70711
vn -0 -0.96593 -0.25882
vn 0 -0.96593 0.25882
vn 0 -0.70711 0.70711
vn 0 -0.25882 0.96593
vn 0 0.25882 0.96593
vn 0 0.70711 0.70711
vn 0 0.96593 0.25882
vn 0 0.96593 -0.25882
vn 0 0.70711 -0.70711
vn 0 0.25882 -0.96593
vn -0 0.96593 0.25882
vn -0 0.70711 0.70711
vn -0 0.25882 0.96593
vn -0 0.25882 0.96593
vn 0 1 -0
f 1//1 2//1 3//1
f 3//1 2//1 4//1
f 5//1 6//1 7//1
f 7//1 6//1 8//1
f 7//1 8//1 9//1
f 9//1 8//1 1//1
f 9//1 1//1 10//1
f 10//1 1//1 3//1
f 11//2 12//2 13//2
f 14//2 15//2 16//2
f 16//2 15//2 17//2
f 16//2 17//2 18//2
f 18//2 17//2 19//2
f 13//2 12//2 20//2
f 20//2 12//2 21//2
f 20//2 21//2 22//2
f 22//2 21//2 23//2
f 22//2 23//2 24//2
f 14//2 25//2 15//2
f 15//2 25//2 26//2
f 15//2 26//2 13//2
f 13//2 26//2 27//2
f 13//2 27//2 11//2
f 24//2 28//2 22//2
f 22//2 28//2 29//2
f 22//2 29//2 19//2
f 19//2 29//2 30//2
f 19//2 30//2 18//2
f 31//3 22//3 32//3
f 32//3 22//3 19//3
f 32//3 19//3 5//3
f 5//3 19//3 6//3
f 15//4 13//4 1//4
f 1//4 13//4 2//4
f 33//5 34//5 2//5
f 22//6 31//6 33//6
f 22//6 33//6 35//6
f 35//7 33//7 2//7
f 35//8 2//8 13//8
f 15//9 1//9 36//9
f 15//9 36//9 37//9
f 37//10 36//10 6//10
f 37//10 6//10 19//10
f 4//3 33//3 3//3
f 3//3 33//3 38//3
f 38//1 33//1 31//1
f 39//1 40//1 41//1
f 41//1 40//1 38//1
f 41//1 38//1 32//1
f 32//1 38//1 31//1
f 42//11 28//11 43//11
f 43//11 28//11 24//11
f 43//12 24//12 44//12
f 44//12 24//12 23//12
f 44//13 23//13 45//13
f 45//13 23//13 46//13
f 45//14 46//14 47//14
f 47//14 46//14 12//14
f 47//15 12//15 48//15
f 48//15 12//15 11//15
f 48//16 11//16 49//16
f 49//16 11//16 27//16
f 42//4 50//4 28//4
f 28//4 50//4 29//4
f 51//17 26//17 52//17
f 52//17 26//17 25//17
f 52//18 25//18 53//18
f 53//18 25//18 14//18
f 53//19 14//19 54//19
f 54//19 14//19 55//19
f 54//20 55//20 56//20
f 56//20 55//20 18//20
f 56//21 18//21 57//21
f 57//21 18//21 30//21
f 57//22 30//22 50//22
f 50//22 30//22 29//22
f 51//3 49//3 26//3
f 26//3 49//3 27//3
f 56//2 57//2 54//2
f 54//2 57//2 50//2
f 50//2 42//2 49//2
f 49//2 42//2 43//2
f 53//2 54//2 52//2
f 52//2 54//2 50//2
f 52//2 50//2 51//2
f 51//2 50//2 49//2
f 47//2 48//2 45//2
f 45//2 48//2 49//2
f 45//2 49//2 44//2
f 44//2 49//2 43//2
f 41//23 7//23 39//23
f 39//23 7//23 9//23
f 39//24 9//24 40//24
f 40//24 9//24 10//24
f 40//25 10//25 58//25
f 58//26 10//26 59//26
f 7//27 41//27 5//27
f 5//27 41//27 32//27
# Vertices: 59, normals: 27, texture coordinates: 0, faces: 98

