# File generated by ImageToStl.com - Free Image and 3D model conversion tools

o obj1
v 0 -0.238016 -0.015625
v 0 -0.238016 0.015625
v -0.03125 -0.238016 -0.015625
v -0.03125 -0.238016 0.015625
v 0 0 -0.015625
v -0.03125 0 -0.015625
v -0.03125 0.00597942 -0.01443562
v 0 0.00597942 -0.01443562
v -0.03125 0.01104856 -0.01104854
v 0 0.01104856 -0.01104854
v -0.03125 0.01443562 -0.00597943
v 0 0.01443562 -0.00597943
v -0.03125 0.01562497 -0
v 0 0.01562497 -0
v -0.03125 0.01443562 0.00597943
v 0 0.01443562 0.00597943
v -0.03125 0.01104856 0.01104854
v 0 0.01104856 0.01104854
v -0.03125 0.00597942 0.01443562
v 0 0.00597942 0.01443562
v -0.03125 0 0.015625
v 0 0 0.015625
vn 0 -1 0
vn -0 -0 -1
vn 0 0.19509 -0.98079
vn 0 0.55557 -0.83147
vn 0 0.83147 -0.55557
vn 0 0.98079 -0.19509
vn 0 0.98079 0.19509
vn 0 0.83147 0.55557
vn 0 0.55557 0.83147
vn 0 0.19509 0.98079
vn 0 -0 1
vn 1 0 0
vn -1 0 0
f 1//1 2//1 3//1
f 3//1 2//1 4//1
f 5//2 1//2 6//2
f 6//2 1//2 3//2
f 5//3 6//3 7//3
f 5//3 7//3 8//3
f 8//4 7//4 9//4
f 8//4 9//4 10//4
f 10//5 9//5 11//5
f 10//5 11//5 12//5
f 12//6 11//6 13//6
f 12//6 13//6 14//6
f 14//7 13//7 15//7
f 14//7 15//7 16//7
f 16//8 15//8 17//8
f 16//8 17//8 18//8
f 18//9 17//9 19//9
f 18//9 19//9 20//9
f 20//10 19//10 21//10
f 20//10 21//10 22//10
f 2//11 22//11 4//11
f 4//11 22//11 21//11
f 12//12 14//12 16//12
f 2//12 1//12 22//12
f 22//12 1//12 5//12
f 22//12 5//12 20//12
f 8//12 10//12 5//12
f 5//12 10//12 12//12
f 12//12 16//12 5//12
f 5//12 16//12 18//12
f 5//12 18//12 20//12
f 6//13 3//13 4//13
f 17//13 15//13 19//13
f 19//13 15//13 6//13
f 19//13 6//13 21//13
f 21//13 6//13 4//13
f 9//13 7//13 11//13
f 11//13 7//13 6//13
f 11//13 6//13 13//13
f 13//13 6//13 15//13
# Vertices: 22, normals: 13, texture coordinates: 0, faces: 40

