# File generated by ImageToStl.com - Free Image and 3D model conversion tools

o obj1
v -0.0625 0.5038911 -0
v -0.0625 0.5 -0.0625
v -0.0625 0 -0
v -0.0625 -0.5 -0.0625
v -0.0625 -0.015625 0.00418671
v -0.0625 -0.5 0.0625
v -0.0625 -0.03125 0.0625
v -0.0625 -0.5038911 0
v -0.0625 -0.03125 0.03125
v -0.0625 -0.02706329 0.015625
v 0.0625 0.5 0.0625
v 0 0.5 0.0625
v 0 -0.03125 0.0625
v 0.0625 -0.5 0.0625
v -0.0625 0.5038911 -0
v 0.0625 0.5 -0.0625
v 0 0.5038911 -0
v 0.0625 0.5038911 -0
v 0.0625 0.0125 -0.02165063
v 0.0625 0 -0.025
v 0.0625 -0.0125 0.02165063
v 0.0625 0 0.025
v 0.0625 -0.5 -0.0625
v 0.0625 -0.0125 -0.02165063
v 0.0625 -0.02165063 -0.0125
v 0.0625 -0.5038911 0
v 0.0625 -0.025 -0
v 0.0625 -0.02165063 0.0125
v 0.0625 0.0125 0.02165063
v 0.0625 0.02165063 0.0125
v 0.0625 0.5038911 -0
v 0.0625 0.025 -0
v 0.0625 0.02165063 -0.0125
v 0.0625 -0.5038911 0
v -0.0625 -0.5038911 0
v 0 0 -0
v 0 -0.015625 0.00418671
v 0 -0.02706329 0.015625
v 0 -0.03125 0.03125
v -0.0625 0.5038911 -0
v 0.0825 -0.02165063 0.0125
v 0.0825 -0.0125 0.02165063
v 0.0825 0 0.025
v 0.0625 0 0.025
v 0.0825 0.0125 0.02165063
v 0.0825 0.02165063 0.0125
v 0.0825 0.025 -0
v 0.0625 0.025 -0
v 0.0825 0.02165063 -0.0125
v 0.0825 0.0125 -0.02165063
v 0.0825 0 -0.025
v 0.0625 0 -0.025
v 0.0825 -0.0125 -0.02165063
v 0.0825 -0.02165063 -0.0125
v 0.0825 -0.025 -0
v 0.0825 0 -0
v 0.0825 0.025 -0
v 0 0 -0
v -0.0625 0 -0
vn -1 -0 0
vn 0 0 1
vn 0 0.99807 -0.06214
vn 0 0.99807 0.06214
vn 0 0.99807 0.06214
vn 1 0 0
vn 0 0 -1
vn 0 -0.99807 -0.06214
vn 0 -0.99807 0.06214
vn 0 -0.96593 0.25882
vn 0 -0.70711 0.70711
vn 0 -0.25882 0.96593
vn -0 0.25882 0.96593
vn 0 0.25882 0.96593
vn -0 0.70711 0.70711
vn -0 0.96593 0.25882
vn 0 0.96593 -0.25882
vn 0 0.70711 -0.70711
vn 0 0.25882 -0.96593
vn 0 -0.25882 -0.96593
vn 0 -0.25882 -0.96593
vn 0 -0.70711 -0.70711
vn 0 -0.96593 -0.25882
vn -0 0.25882 0.96593
vn 0 0.25882 0.96593
vn 0 1 0
f 1//1 2//1 3//1
f 3//1 2//1 4//1
f 3//1 4//1 5//1
f 6//1 7//1 8//1
f 8//1 7//1 9//1
f 8//1 9//1 4//1
f 4//1 9//1 10//1
f 4//1 10//1 5//1
f 11//2 12//2 13//2
f 7//2 6//2 13//2
f 13//2 6//2 14//2
f 13//2 14//2 11//2
f 2//3 15//3 16//3
f 16//3 15//3 17//3
f 16//3 17//3 18//3
f 18//4 17//4 12//4
f 18//5 12//5 11//5
f 19//6 20//6 16//6
f 21//6 22//6 14//6
f 14//6 22//6 11//6
f 16//6 20//6 23//6
f 20//6 24//6 23//6
f 23//6 24//6 25//6
f 23//6 25//6 26//6
f 26//6 25//6 27//6
f 26//6 27//6 14//6
f 14//6 27//6 28//6
f 14//6 28//6 21//6
f 22//6 29//6 11//6
f 11//6 29//6 30//6
f 11//6 30//6 31//6
f 31//6 30//6 32//6
f 31//6 32//6 16//6
f 16//6 32//6 33//6
f 16//6 33//6 19//6
f 4//7 2//7 23//7
f 23//7 2//7 16//7
f 4//8 23//8 34//8
f 4//8 34//8 35//8
f 35//9 34//9 14//9
f 35//9 14//9 6//9
f 36//1 37//1 38//1
f 12//1 17//1 13//1
f 13//1 17//1 36//1
f 13//1 36//1 39//1
f 39//1 36//1 38//1
f 17//2 40//2 36//2
f 36//2 40//2 3//2
f 27//10 41//10 28//10
f 28//11 41//11 42//11
f 28//11 42//11 21//11
f 21//12 42//12 43//12
f 21//12 43//12 44//12
f 44//13 43//13 45//13
f 44//14 45//14 29//14
f 29//15 45//15 46//15
f 29//15 46//15 30//15
f 30//16 46//16 47//16
f 30//16 47//16 48//16
f 48//17 47//17 49//17
f 48//17 49//17 33//17
f 33//18 49//18 50//18
f 33//18 50//18 19//18
f 19//19 50//19 51//19
f 19//19 51//19 52//19
f 52//20 51//20 53//20
f 52//21 53//21 24//21
f 24//22 53//22 54//22
f 24//22 54//22 25//22
f 25//23 54//23 55//23
f 25//23 55//23 27//23
f 27//10 55//10 41//10
f 50//6 49//6 56//6
f 56//6 49//6 57//6
f 56//6 57//6 46//6
f 54//6 53//6 56//6
f 56//6 53//6 51//6
f 56//6 51//6 50//6
f 42//6 41//6 56//6
f 56//6 41//6 55//6
f 56//6 55//6 54//6
f 46//6 45//6 56//6
f 56//6 45//6 43//6
f 56//6 43//6 42//6
f 58//24 59//24 37//24
f 37//25 59//25 5//25
f 37//15 5//15 38//15
f 38//15 5//15 10//15
f 38//16 10//16 39//16
f 39//16 10//16 9//16
f 9//26 7//26 39//26
f 39//26 7//26 13//26
# Vertices: 59, normals: 26, texture coordinates: 0, faces: 92

